<svg width="40" height="40" viewBox="0 0 200 200" xmlns="http://www.w3.org/2000/svg" xml:space="preserve" style="fill-rule:evenodd;clip-rule:evenodd;stroke-linejoin:round;stroke-miterlimit:2"><path style="fill:none" d="M0 0h200v200H0z"/><clipPath id="a"><path d="M0 0h200v200H0z"/></clipPath><g clip-path="url(#a)"><path d="M0 100C0 44.772 44.772 0 100 0s100 44.772 100 100-44.772 100-100 100S0 155.228 0 100" style="fill:#496e2d;fill-rule:nonzero"/><path d="M56.523 119.531c0 7.227 5.859 13.086 13.047 13.086h39.141c0 5.957 4.902 10.859 10.859 10.859h13.047c5.957 0 10.859-4.902 10.859-10.859v-13.086zm88.047-63.008v30.469c0 4.766-3.906 8.672-8.711 8.672v13.047c11.992 0 21.758-9.766 21.758-21.758v-30.43h-13.086zM51.093 86.992c0 4.766-3.906 8.672-8.711 8.672v13.047c11.992 0 21.758-9.766 21.758-21.758v-30.43H51.093zm73.906-30.469h13.047v30.469h-13.047zm-19.531 17.383c0 1.2-.987 2.187-2.188 2.187-1.2 0-2.187-.987-2.188-2.187V56.523H88.045v17.383a2.195 2.195 0 0 1-2.168 1.896 2.195 2.195 0 0 1-2.168-1.896V56.523H70.662v17.383c0 8.357 6.877 15.234 15.234 15.234 3.102 0 6.131-.955 8.672-2.734a15.1 15.1 0 0 0 8.672 2.734c.664 0 1.328-.039 1.953-.117a8.734 8.734 0 0 1-8.438 6.641v13.047c11.953 0 21.719-9.766 21.719-21.758v-30.43h-13.008v17.383ZM70.663 95.664h19.531v13.047H70.663z" style="fill:#eee;fill-rule:nonzero"/></g></svg>
