<svg width="250px" hight="" viewBox="0 0 4375 1563" xmlns="http://www.w3.org/2000/svg" xml:space="preserve" style="fill-rule:evenodd;clip-rule:evenodd;stroke-linejoin:round;stroke-miterlimit:2"><path d="M1287.403 684.075c59.312-7.036 94.871-71.322 70.47-125.575-33.107-73.611-127.8-53.802-192.051-53.406-209.709 1.293-419.464-1.224-629.178-.074-285.079 29.039-357.892 423.477-89.981 539.925 37.883 16.464 74.646 22.003 115.383 26.973 40.93 72.382 143.308 245.839 143.308 245.839l-132.105.109c-364.438 8.497-633.776-326.019-532.573-682.004 65.679-231.034 277.449-384.628 516.5-388.126 235.325 8.046 477.413-10.375 711.955 0 124.346 5.505 231.971 54.605 302.767 158.731 128.909 189.604 40.157 445.604-186.913 493.456l250.253 417.834-289.994-.426-382.725-633.256zm-494.789 0 376.542 633.697H879.86L641.077 913.673H498.726V684.076z" style="fill:#6a82fb"/><path d="M2554.006 775.647h-323.963l-.576-173.511h-23.634q-25.94 0-25.94 30.552v142.959h-179.851q-88.197 0-126.818-34.299-38.622-34.299-38.622-100.014v-80.126h98.572v51.304q0 26.517 13.547 39.775t45.251 13.258h89.926v-61.68q0-55.916 29.975-84.45t85.891-28.534h132.583v174.663h105.49V542.761h98.572v121.63h11.529q21.328 0 28.534-9.511t7.206-29.111v-83.008h97.996v105.49q0 29.399 29.975 29.399 13.835 0 22.193-10.376t8.358-29.399q0-55.916-49.574-112.407l80.126-58.798q25.94 25.363 46.692 66.291t25.364 84.161q2.881 27.093 11.529 37.757 8.646 10.665 33.434 10.664v.01q.574-.01 1.153-.01h189.651v-5.188q0-16.14-15.564-24.787l-144.688-80.126v-65.139l249.025-153.911 50.727 81.279-161.982 97.402 62.256 32.281q38.622 19.608 49.286 40.649 10.664 21.04 10.664 56.213v21.329h63.986q12.682 0 25.94 2.882v-1.729q-15.564-17.87-15.564-56.492 0-48.998 37.757-83.873 37.758-34.875 101.166-34.875 66.868 0 103.472 37.181t36.604 103.472q0 64.562-44.675 104.049-44.674 39.486-113.272 39.487h-485.368l-.576-.001q-51.88 0-81.279-31.127h-2.306q-14.41 18.447-37.757 29.399t-46.98 10.952q-60.527 0-91.655-40.928h-2.306q-21.329 31.705-71.479 31.705Zm800.109-148.723q0 14.411 11.241 27.381t32.569 17.005q34.01-12.682 34.01-46.116 0-12.682-9.8-21.617t-27.669-8.935q-20.175 0-30.263 9.8t-10.088 22.481Zm853.142 148.723h-351.056q-2.306 68.597-40.351 99.725T3693.067 906.5V803.892q36.317 0 49.863-14.123 13.547-14.123 13.547-48.133V542.762h99.725v122.783h234.614l1.153-1.729q-10.376-8.646-16.717-34.01-3.459-16.14-13.547-24.211-10.087-8.07-31.416-8.07-35.74 0-72.632 19.599l-38.622-87.62q62.832-38.622 129.124-38.622 117.595 0 135.465 130.853 2.882 21.905 8.07 31.416 5.188 9.512 15.564 14.123v108.372ZM1947.584 885.172v-68.021h81.279v68.021zm92.808 0v-68.021h81.855v68.021zm1313.723-432.335v-68.021h80.703v68.021zm240.378-99.149h99.149v421.959h-99.149zm412.736 531.484v-68.021h80.703v68.021zm48.398 273.384h-232.708q-.632 30.986-15.809 47.585t-49.008 17.232v-12.647h-11.382v-26.243h25.927v11.735q10.282-2.596 16.125-8.731 9.486-9.96 9.485-33.989v-117.303h24.662v96.435h199.193v-96.435h24.346v96.435h9.169q36.36 0 36.361-42.052v-54.383h24.03v63.236q0 36.993 27.824 36.993 13.912 0 20.868-10.908 6.956-10.909 6.956-28.93 0-20.235-8.221-42.842t-20.868-35.886l19.603-16.125q13.28 15.809 23.872 40.471t10.592 53.751q0 28.14-12.489 46.478t-39.997 18.338q-13.596 0-25.294-5.849t-17.39-17.232h-1.265q-13.28 20.868-44.581 20.868Zm-1632.754 0H2048.2v-123.943h-18.971q-15.493 0-21.975 8.695t-6.482 26.085v89.163h-70.824q-84.736 0-84.736-79.994v-31.302h24.346v20.868q0 32.25 12.805 48.376t45.688 16.125h48.376v-69.56q0-26.876 14.702-40.787 14.702-13.912 39.681-13.912h42.052v124.259h247.253l1.581-1.581q-14.544-13.596-14.544-47.743 0-32.566 18.022-53.751t49.956-21.184q29.721 0 53.118 22.449l-17.074 20.236q-14.86-15.809-36.677-15.809-18.338 0-29.405 12.489t-11.066 37.151q0 7.905 1.581 15.019 1.58 7.115 6.007 15.177t14.386 12.805q9.96 4.743 24.188 4.743h42.684v25.927Zm439.49 0h-330.724v-25.927h92.641v-59.126q0-20.235-8.063-29.405-8.062-9.17-25.452-9.169-22.765 0-40.787 12.331l-13.28-20.868q22.765-18.022 53.751-18.022 58.177 0 58.177 59.126v65.133h213.738q16.441 0 20.868-9.011t4.427-29.879v-78.096h24.346v88.214q0 54.699-49.64 54.699Zm596.948 0q-26.559 0-35.412-17.074-7.904 9.486-16.916 13.28-9.01 3.794-25.769 3.794h-55.648q-84.736 0-84.736-79.994v-31.302h24.346v21.184q0 32.25 12.805 48.217t45.688 15.967h57.545q18.339 0 24.188-8.379 5.85-8.38 5.849-26.717V929.008h24.346v174.215q0 28.456 23.714 29.405h106.869v-24.662q0-15.177-3.952-25.136-3.952-9.96-15.335-16.916l-67.03-42.684v-19.919l112.876-74.302 12.647 18.655-98.016 64.367 54.699 34.854q18.339 11.709 23.397 25.156 5.06 13.442 5.059 33.377v27.211h116.354q16.441 0 20.868-9.011t4.427-29.879v-78.096h24.346v88.214q0 54.699-49.64 54.699zm-1486.046 52.17h-25.927v-26.243h25.927zm-37.309 0h-25.927v-26.243h25.927zm531.815-281.716h24.346v229.547h-24.346zm432.85 281.716h-25.927v-26.243h25.927zm73.986-272.231h24.346v162.517h-24.346zm92.008-9.485v159.355q0 72.089-65.449 72.089-16.125 0-30.669-6.166-14.544-6.165-23.714-16.599l17.39-20.552q17.073 17.073 36.045 17.074 21.5 0 31.776-11.382t10.276-37.625V929.011zm-70.192 249.466q14.86 0 25.611 8.221l-6.956 12.963q-8.536-5.375-18.655-5.375-15.809 0-15.809 12.647 0 11.699 14.86 11.699h26.243v15.809h-65.765v-15.809h11.382l.316-.632q-4.11-4.427-4.11-12.647 0-10.434 8.063-18.655 8.062-8.22 24.82-8.221m109.714-249.466h24.346v229.547h-24.346zm241.878 78.096q14.86 0 25.611 8.221l-6.956 12.963q-8.536-5.375-18.655-5.375-15.809 0-15.809 12.647 0 11.699 14.86 11.699h26.243v15.809h-65.765v-15.809h11.382l.316-.632q-4.11-4.427-4.11-12.647 0-10.434 8.063-18.655 8.062-8.22 24.82-8.221m387.321 203.62h-25.927v-26.243h25.927zm398.387-219.745h-25.927v-26.243h25.927zm-37.309 0h-25.927v-26.243h25.927zm18.655-39.206h-25.927v-26.243h25.927z" style="fill:#ccdeff"/></svg>