<?xml version="1.0" encoding="UTF-8" standalone="no"?><!DOCTYPE svg PUBLIC "-//W3C//DTD SVG 1.1//EN" "http://www.w3.org/Graphics/SVG/1.1/DTD/svg11.dtd"><svg width="120px" height="120px" viewBox="0 0 256 256" version="1.1" xmlns="http://www.w3.org/2000/svg" xmlns:xlink="http://www.w3.org/1999/xlink" xml:space="preserve" xmlns:serif="http://www.serif.com/" style="fill-rule:evenodd;clip-rule:evenodd;stroke-linejoin:round;stroke-miterlimit:2;"><rect id="advertising" x="0" y="0" width="256" height="256" style="fill:none;"/><g id="advertising1" serif:id="advertising"><path d="M96.363,191.371l-14.511,2.75l-4.583,-24.185l24.185,-4.583l4.137,8.611c3.303,7.516 -1.368,15.918 -9.228,17.407Zm121.944,-4.319c0,0 -79.366,-28.803 -116.853,-21.7l-16.041,-84.647c35.068,-6.646 100.812,-62.948 100.812,-62.948l32.082,169.295Z" style="fill:#6a82fb;fill-rule:nonzero;"/><path d="M2.74,140.216c0,0 0,0 0,0c3.143,16.584 19.376,27.645 35.96,24.502c16.584,-3.143 27.645,-19.376 24.502,-35.96c-0,-0 -0,-0 -0,-0c-3.143,-16.584 -19.376,-27.645 -35.96,-24.502c-16.584,3.143 -27.645,19.376 -24.502,35.96Z" style="fill:#48d1cc;fill-rule:nonzero;"/><path d="M216.967,80.829l-18.139,3.437l6.875,36.277l18.139,-3.437c10.279,-1.948 16.649,-11.297 14.701,-21.576c-1.948,-10.279 -11.297,-16.649 -21.576,-14.701Zm-103.953,158.746c-4.754,4.659 -13.741,10.12 -26.209,13.735c-3.513,1.292 -7.599,-0.439 -9.611,-4.442l-42.301,-77.792c0,0 46.103,-47.57 54.467,-3.432c6.302,33.254 18.694,49.07 24.187,54.919c3.825,3.659 4.856,9.101 2.635,13.906c-0.98,1.438 -2.075,2.272 -3.169,3.106Z" style="fill:#48d1cc;fill-rule:nonzero;"/><path d="M40.992,176.811l60.462,-11.458l-16.041,-84.647l-60.462,11.458c-6.651,1.26 -11.061,7.733 -9.801,14.384l11.458,60.462c1.26,6.651 7.733,11.061 14.384,9.801Z" style="fill:#3f51b5;fill-rule:nonzero;"/><path d="M226.645,197.999c-6.651,1.26 -13.124,-3.15 -14.384,-9.801l-32.082,-169.295c-1.26,-6.651 3.15,-13.124 9.801,-14.384c6.651,-1.26 13.124,3.15 14.384,9.801l32.082,169.295c1.26,6.651 -3.15,13.124 -9.801,14.384Z" style="fill:#4a5bbd;fill-rule:nonzero;"/></g></svg>