<?xml version="1.0" encoding="UTF-8" standalone="no"?><!DOCTYPE svg PUBLIC "-//W3C//DTD SVG 1.1//EN" "http://www.w3.org/Graphics/SVG/1.1/DTD/svg11.dtd"><svg width="120px" height="120px" viewBox="0 0 256 256" version="1.1" xmlns="http://www.w3.org/2000/svg" xmlns:xlink="http://www.w3.org/1999/xlink" xml:space="preserve" xmlns:serif="http://www.serif.com/" style="fill-rule:evenodd;clip-rule:evenodd;stroke-linejoin:round;stroke-miterlimit:2;"><rect id="branding" x="0" y="0" width="256" height="256" style="fill:none;"/><g id="branding1" serif:id="branding"><g><path d="M251.51,181.692l-117.463,67.817c-3.337,1.927 -8.393,2.136 -11.283,0.468l-119.083,-68.753c-2.89,-1.669 -2.527,-4.588 0.81,-6.514l117.463,-67.817c3.337,-1.927 8.393,-2.136 11.283,-0.468l119.083,68.753c2.89,1.669 2.527,4.588 -0.81,6.514Z" style="fill:#4a5bbd;"/><path d="M251.51,131.49l-117.463,67.817c-3.337,1.927 -8.393,2.136 -11.283,0.468l-119.083,-68.753c-2.89,-1.669 -2.527,-4.588 0.81,-6.514l117.463,-67.817c3.337,-1.927 8.393,-2.136 11.283,-0.468l119.083,68.753c2.89,1.669 2.527,4.588 -0.81,6.514Z" style="fill:#48d1cc;"/><path d="M251.51,81.29l-117.463,67.817c-3.337,1.927 -8.393,2.136 -11.283,0.468l-119.083,-68.753c-2.89,-1.669 -2.527,-4.588 0.81,-6.514l117.463,-67.817c3.337,-1.927 8.393,-2.136 11.283,-0.468l119.083,68.753c2.89,1.669 2.527,4.588 -0.81,6.514Z" style="fill:#6a82fb;"/></g></g></svg>