<?xml version="1.0" encoding="UTF-8" standalone="no"?><!DOCTYPE svg PUBLIC "-//W3C//DTD SVG 1.1//EN" "http://www.w3.org/Graphics/SVG/1.1/DTD/svg11.dtd"><svg width="120px" height="120px" viewBox="0 0 256 256" version="1.1" xmlns="http://www.w3.org/2000/svg" xmlns:xlink="http://www.w3.org/1999/xlink" xml:space="preserve" xmlns:serif="http://www.serif.com/" style="fill-rule:evenodd;clip-rule:evenodd;stroke-linejoin:round;stroke-miterlimit:2;"><rect id="copywriting" x="0" y="0" width="256" height="256" style="fill:none;"/><g id="copywriting1" serif:id="copywriting"><g><path d="M211.79,68.304c11.66,-11.659 11.66,-30.567 0,-42.226c-11.661,-11.659 -30.566,-11.659 -42.227,0l-5.279,5.276l42.228,42.226l5.277,-5.277Z" style="fill:#48d1cc;fill-rule:nonzero;"/><path d="M174.007,74.416l-10.556,-10.553l-15.834,-15.836l-131.69,131.688l27.709,3.961c5.934,-0.273 10.82,4.612 10.56,10.546l-0.001,0.007l3.957,27.712l131.691,-131.688l-15.836,-15.836Z" style="fill:#4a5bbd;fill-rule:nonzero;"/><path d="M12.73,182.913l-2.213,2.211l-7.517,49.742l49.743,-7.516l2.213,-2.211l-5.278,-36.949l-36.949,-5.277Z" style="fill:#6a82fb;fill-rule:nonzero;"/><path d="M203.923,76.147l-42.218,-42.219l-10.556,10.56l42.221,42.219l10.554,-10.56Z" style="fill:#6a82fb;fill-rule:nonzero;"/><path d="M230.605,193.879l-66.755,0c-3.721,0 -7.179,-2.533 -7.787,-6.2c-0.772,-4.675 2.83,-8.733 7.362,-8.733l37.323,0c4.123,0 7.465,-3.338 7.465,-7.46c0,-4.129 -3.342,-7.467 -7.465,-7.467l-36.547,0c-11.38,0 -21.534,8.16 -22.981,19.447c-1.75,13.66 8.887,25.34 22.205,25.34l66.765,0c3.72,0 7.175,2.533 7.778,6.207c0.768,4.668 -2.832,8.719 -7.363,8.719l-126.897,0c-4.122,0 -7.464,3.345 -7.464,7.467c0,4.122 3.342,7.467 7.464,7.467l126.116,0c11.38,0 21.536,-8.16 22.986,-19.447c1.755,-13.653 -8.885,-25.34 -22.205,-25.34Z" style="fill:#ccdeff;fill-rule:nonzero;"/></g></g></svg>