<?xml version="1.0" encoding="UTF-8" standalone="no"?><!DOCTYPE svg PUBLIC "-//W3C//DTD SVG 1.1//EN" "http://www.w3.org/Graphics/SVG/1.1/DTD/svg11.dtd"><svg width="120px" height="120px" viewBox="0 0 256 256" version="1.1" xmlns="http://www.w3.org/2000/svg" xmlns:xlink="http://www.w3.org/1999/xlink" xml:space="preserve" xmlns:serif="http://www.serif.com/" style="fill-rule:evenodd;clip-rule:evenodd;stroke-linejoin:round;stroke-miterlimit:2;"><rect id="corporate" x="0" y="0" width="256" height="256" style="fill:none;"/><g id="corporate1" serif:id="corporate"><path d="M169.966,136.416c-1.291,0 -2.347,1.055 -2.347,2.347l0,9.268c0,1.291 1.056,2.347 2.347,2.347l9.268,0c1.291,0 2.347,-1.056 2.347,-2.347l0,-9.268c0,-1.293 -1.056,-2.347 -2.347,-2.347l-9.268,0Zm9.268,17.919c3.466,0 6.304,-2.838 6.304,-6.303l0,-9.268c0,-3.466 -2.838,-6.304 -6.304,-6.304l-9.268,0c-3.468,0 -6.304,2.838 -6.304,6.304l0,9.268c0,3.465 2.836,6.303 6.304,6.303l9.268,0Zm27.805,-17.919c-1.293,0 -2.349,1.055 -2.349,2.347l0,9.268c0,1.291 1.055,2.347 2.349,2.347l9.268,0c1.292,0 2.348,-1.056 2.348,-2.347l0,-9.268c0,-1.293 -1.056,-2.347 -2.348,-2.347l-9.268,0Zm9.268,17.919c3.466,0 6.302,-2.838 6.302,-6.303l0,-9.268c0,-3.466 -2.836,-6.304 -6.302,-6.304l-9.268,0c-3.468,0 -6.303,2.838 -6.303,6.304l0,9.268c0,3.465 2.836,6.303 6.303,6.303l9.268,0Zm-46.342,14.211c-1.291,0 -2.347,1.056 -2.347,2.347l0,9.268c0,1.293 1.056,2.349 2.347,2.349l9.268,-0.002c1.291,0 2.347,-1.056 2.347,-2.347l0,-9.268c0,-1.291 -1.056,-2.347 -2.347,-2.347l-9.268,0Zm9.268,17.92c3.466,0 6.304,-2.838 6.304,-6.304l0,-9.268c0,-3.466 -2.838,-6.304 -6.304,-6.304l-9.268,0c-3.468,0 -6.304,2.838 -6.304,6.304l0,9.268c0,3.466 2.836,6.304 6.304,6.304l9.268,0Zm27.805,-17.92c-1.293,0 -2.349,1.056 -2.349,2.347l0,9.268c0,1.293 1.055,2.349 2.349,2.349l9.268,-0.002c1.292,0 2.348,-1.056 2.348,-2.347l0,-9.268c0,-1.291 -1.056,-2.347 -2.348,-2.347l-9.268,0Zm9.268,17.92c3.466,0 6.302,-2.838 6.302,-6.304l0,-9.268c0,-3.466 -2.836,-6.304 -6.302,-6.304l-9.268,0c-3.468,0 -6.303,2.838 -6.303,6.304l0,9.268c0,3.466 2.836,6.304 6.303,6.304l9.268,0Zm-46.342,14.212c-1.291,0 -2.347,1.054 -2.347,2.347l0,9.268c0,1.291 1.056,2.347 2.347,2.347l9.268,0c1.291,0 2.347,-1.056 2.347,-2.349l0,-9.268c0,-1.291 -1.056,-2.347 -2.347,-2.347l-9.268,0.002Zm9.268,17.917c3.466,0 6.304,-2.836 6.304,-6.302l0,-9.268c0,-3.468 -2.838,-6.304 -6.304,-6.304l-9.268,0c-3.468,0 -6.304,2.836 -6.304,6.302l0,9.268c0,3.468 2.836,6.304 6.304,6.304l9.268,0Zm27.805,-17.917c-1.293,0 -2.349,1.054 -2.349,2.347l0,9.268c0,1.291 1.055,2.347 2.349,2.347l9.268,0c1.292,0 2.348,-1.056 2.348,-2.349l0,-9.268c0,-1.291 -1.056,-2.347 -2.348,-2.347l-9.268,0.002Zm9.268,17.917c3.466,0 6.302,-2.836 6.302,-6.302l0,-9.268c0,-3.468 -2.836,-6.304 -6.302,-6.304l-9.268,0c-3.468,0 -6.303,2.836 -6.303,6.302l0,9.268c0,3.468 2.836,6.304 6.303,6.304l9.268,0Zm-66.044,-137.517l83.788,40.662c1.195,0.577 1.955,1.792 1.955,3.11l0,101.354l-85.744,0l0,-145.126Z" style="fill:#48d1cc;"/><path d="M240.807,254.545l-225.614,0c-6.714,0 -12.193,-5.457 -12.193,-12.193c0,-6.734 5.459,-12.193 12.193,-12.193l225.614,0c6.716,0 12.193,5.459 12.193,12.193c0,6.734 -5.479,12.193 -12.193,12.193Z" style="fill:#4a5bbd;"/><path d="M45.769,82.029c-1.292,0 -2.348,1.056 -2.348,2.349l0,9.268c0,1.291 1.056,2.347 2.348,2.347l9.267,0c1.292,0 2.348,-1.056 2.348,-2.347l0,-9.268c0,-1.293 -1.056,-2.349 -2.348,-2.349l-9.267,0Zm9.267,17.92c3.467,0 6.304,-2.837 6.304,-6.302l0,-9.268c0,-3.467 -2.837,-6.304 -6.304,-6.304l-9.267,0c-3.467,0 -6.303,2.837 -6.303,6.304l0,9.268c0,3.465 2.836,6.302 6.303,6.302l9.267,0Zm23.481,-17.92c-1.292,0 -2.348,1.056 -2.348,2.349l0,9.268c0,1.291 1.056,2.347 2.348,2.347l9.268,0c1.293,0 2.348,-1.056 2.348,-2.347l0,-9.268c0,-1.293 -1.055,-2.349 -2.348,-2.349l-9.268,0Zm9.268,17.92c3.466,0 6.303,-2.837 6.303,-6.302l0,-9.268c0,-3.467 -2.837,-6.304 -6.303,-6.304l-9.268,0c-3.467,0 -6.304,2.837 -6.304,6.304l0,9.268c0,3.465 2.837,6.302 6.304,6.302l9.268,0Zm23.48,-17.92c-1.292,0 -2.347,1.056 -2.347,2.349l0,9.268c0,1.291 1.055,2.347 2.347,2.347l9.268,0c1.292,0 2.347,-1.056 2.347,-2.347l0,-9.268c0,-1.293 -1.055,-2.349 -2.347,-2.349l-9.268,0Zm9.268,17.92c3.466,0 6.303,-2.837 6.303,-6.302l0,-9.268c0,-3.467 -2.837,-6.304 -6.303,-6.304l-9.268,0c-3.467,0 -6.302,2.837 -6.302,6.304l0,9.268c0,3.465 2.836,6.302 6.302,6.302l9.268,0Zm-74.765,14.83c-1.292,0 -2.348,1.054 -2.348,2.347l0,9.268c0,1.292 1.056,2.347 2.348,2.347l9.267,0c1.292,0 2.348,-1.056 2.348,-2.348l0,-9.269c0,-1.291 -1.056,-2.347 -2.348,-2.347l-9.267,0.002Zm9.267,17.918c3.467,0 6.304,-2.838 6.304,-6.303l0,-9.269c0,-3.465 -2.837,-6.302 -6.304,-6.302l-9.267,0c-3.467,0 -6.303,2.837 -6.303,6.302l0,9.269c0,3.465 2.836,6.303 6.303,6.303l9.267,0Zm23.481,-17.918c-1.292,0 -2.348,1.054 -2.348,2.347l0,9.268c0,1.292 1.056,2.347 2.348,2.347l9.268,0c1.293,0 2.348,-1.056 2.348,-2.348l0,-9.269c0,-1.291 -1.055,-2.347 -2.348,-2.347l-9.268,0.002Zm9.268,17.918c3.466,0 6.303,-2.838 6.303,-6.303l0,-9.269c0,-3.465 -2.837,-6.302 -6.303,-6.302l-9.268,0c-3.467,0 -6.304,2.837 -6.304,6.302l0,9.269c0,3.465 2.837,6.303 6.304,6.303l9.268,0Zm23.48,-17.918c-1.292,0 -2.347,1.054 -2.347,2.347l0,9.268c0,1.292 1.055,2.347 2.347,2.347l9.268,0c1.292,0 2.347,-1.056 2.347,-2.348l0,-9.269c0,-1.291 -1.055,-2.347 -2.347,-2.347l-9.268,0.002Zm9.268,17.918c3.466,0 6.303,-2.838 6.303,-6.303l0,-9.269c0,-3.465 -2.837,-6.302 -6.303,-6.302l-9.268,0c-3.467,0 -6.302,2.837 -6.302,6.302l0,9.269c0,3.465 2.836,6.303 6.302,6.303l9.268,0Zm-74.765,14.83c-1.292,0 -2.348,1.055 -2.348,2.347l0,9.268c0,1.291 1.056,2.347 2.348,2.347l9.267,0c1.292,0 2.348,-1.056 2.348,-2.347l0,-9.268c0,-1.292 -1.056,-2.347 -2.348,-2.347l-9.267,0Zm9.267,17.919c3.467,0 6.304,-2.838 6.304,-6.303l0,-9.268c0,-3.466 -2.837,-6.304 -6.304,-6.304l-9.267,0c-3.467,0 -6.303,2.838 -6.303,6.304l0,9.268c0,3.465 2.836,6.303 6.303,6.303l9.267,0Zm23.481,-17.919c-1.292,0 -2.348,1.055 -2.348,2.347l0,9.268c0,1.291 1.056,2.347 2.348,2.347l9.268,0c1.293,0 2.348,-1.056 2.348,-2.347l0,-9.268c0,-1.292 -1.055,-2.347 -2.348,-2.347l-9.268,0Zm9.268,17.919c3.466,0 6.303,-2.838 6.303,-6.303l0,-9.268c0,-3.466 -2.837,-6.304 -6.303,-6.304l-9.268,0c-3.467,0 -6.304,2.838 -6.304,6.304l0,9.268c0,3.465 2.837,6.303 6.304,6.303l9.268,0Zm23.48,-17.919c-1.292,0 -2.347,1.055 -2.347,2.347l0,9.268c0,1.291 1.055,2.347 2.347,2.347l9.268,0c1.292,0 2.347,-1.056 2.347,-2.347l0,-9.268c0,-1.292 -1.055,-2.347 -2.347,-2.347l-9.268,0Zm9.268,17.919c3.466,0 6.303,-2.838 6.303,-6.303l0,-9.268c0,-3.466 -2.837,-6.304 -6.303,-6.304l-9.268,0c-3.467,0 -6.302,2.838 -6.302,6.304l0,9.268c0,3.465 2.836,6.303 6.302,6.303l9.268,0Zm-21.132,60.758l0,-36.476c0,-3.001 -2.436,-5.437 -5.437,-5.437l-21.626,0c-3.001,0 -5.437,2.436 -5.437,5.437l-0.001,36.479l32.501,-0.002Zm-55.796,-7.002c1.097,0 1.979,-0.881 1.979,-1.977l0,-34.912c0,-1.098 -0.881,-1.979 -1.978,-1.979c-1.098,0 -1.978,0.881 -1.978,1.979l-0.001,34.912c0,1.097 0.881,1.977 1.978,1.977Zm79.091,0c1.097,0 1.978,-0.881 1.978,-1.977l0,-34.912c0,-1.098 -0.88,-1.979 -1.978,-1.979c-1.097,0 -1.977,0.881 -1.977,1.979l0,34.912c0,1.097 0.88,1.977 1.977,1.977Zm-84.229,-167.45l-0,-3.152c0,-7.662 6.24,-13.903 13.902,-13.903l61.585,0c7.661,0 13.902,6.24 13.902,13.903l0,3.154c-0.826,-0.083 -1.666,-0.126 -2.513,-0.126l-84.383,-0.001c-0.841,0 -1.672,0.043 -2.492,0.125Zm41.234,-37.94l0,-8.897c0,-1.916 1.545,-3.461 3.46,-3.461c1.916,0 3.461,1.545 3.461,3.461l0,8.897l12.049,0c7.662,0 13.901,6.241 13.901,13.903l0,3.028l-58.802,0l0,-3.028c0,-7.662 6.241,-13.903 13.903,-13.903l12.029,0Zm-59.71,212.393l-0,-149.656c0,-11.576 9.413,-20.968 20.968,-20.968l84.383,0.001c11.556,0 20.967,9.412 20.967,20.968l0,149.653l-42.953,0l0,-36.476c0,-5.175 -4.218,-9.391 -9.392,-9.391l-21.626,-0.002c-5.176,0 -9.393,4.218 -9.393,9.393l0,36.479l-42.953,0Z" style="fill:#6a82fb;"/></g></svg>