<?xml version="1.0" encoding="UTF-8" standalone="no"?><!DOCTYPE svg PUBLIC "-//W3C//DTD SVG 1.1//EN" "http://www.w3.org/Graphics/SVG/1.1/DTD/svg11.dtd"><svg width="120px" height="120px" viewBox="0 0 256 256" version="1.1" xmlns="http://www.w3.org/2000/svg" xmlns:xlink="http://www.w3.org/1999/xlink" xml:space="preserve" xmlns:serif="http://www.serif.com/" style="fill-rule:evenodd;clip-rule:evenodd;stroke-linejoin:round;stroke-miterlimit:2;"><rect id="devicon" x="0" y="0" width="256" height="256" style="fill:none;"/><g id="devicon1" serif:id="devicon"><g><path d="M23.897,203.806l0,-127.257c0,-10.556 8.59,-19.146 19.145,-19.146l2.267,0c2.111,0 3.833,-1.722 3.833,-3.833l0,-5.732c0,-2.111 -1.722,-3.833 -3.833,-3.833l-15.665,0c-10.543,0 -19.146,8.603 -19.146,19.146l0,140.655c0,3.165 2.582,5.748 5.748,5.748l1.904,0c3.165,0 5.748,-2.582 5.748,-5.748Z" style="fill:#2a2d34;"/><path d="M13.161,219.123l63.246,0c4.176,0 7.727,2.545 9.068,6.501l0.404,1.192c1.341,3.955 4.892,6.5 9.068,6.5l66.104,0c4.176,0 7.727,-2.545 9.069,-6.5l0.404,-1.192c1.341,-3.955 4.892,-6.501 9.068,-6.501l63.246,0c4.22,0 7.662,3.442 7.662,7.662l0,0.327c0,12.857 -10.531,23.388 -23.388,23.388l-198.223,0c-12.857,0 -23.388,-10.525 -23.388,-23.388l0,-0.327c0,-4.22 3.441,-7.662 7.661,-7.662Z" style="fill:#2a2d34;"/><path d="M222.533,203.806l0,-127.257c0,-5.274 -4.302,-9.576 -9.575,-9.576l-2.267,0c-2.111,0 -3.833,1.722 -3.833,3.833l0,90.195c0,12.648 -10.321,22.969 -22.968,22.969l-111.778,0c-12.648,0 -22.968,-10.321 -22.968,-22.969l0,-90.195c0,-2.111 -1.722,-3.833 -3.833,-3.833l-2.267,0c-5.274,0 -9.575,4.301 -9.575,9.576l0,127.257c0,3.165 2.582,5.748 5.748,5.748l177.571,0c3.165,0 5.748,-2.582 5.748,-5.748Z" style="fill:#48d1cc;"/><path d="M210.691,57.404l2.267,0c10.556,0 19.145,8.59 19.145,19.146l0,127.257c0,3.165 2.582,5.748 5.748,5.748l1.904,0c3.165,0 5.747,-2.582 5.747,-5.748l0,-140.655c0,-10.545 -8.602,-19.146 -19.145,-19.146l-15.788,0.502c-2.068,0.066 -3.711,1.763 -3.711,3.832l0,5.232c0,2.111 1.722,3.833 3.833,3.833Z" style="fill:#2a2d34;"/><path d="M72.111,5.5l87.786,0l0,17.114c0,12.648 10.321,22.968 22.968,22.968l16.336,0l0,115.42c0,8.422 -6.89,15.312 -15.312,15.312l-111.778,0c-8.422,0 -15.312,-6.89 -15.312,-15.312l0,-140.19c0,-8.422 6.89,-15.312 15.312,-15.312Zm33.516,102.608c0,1.012 -0.042,1.813 -0.126,2.389c-0.085,0.576 -0.211,0.984 -0.394,1.237c-0.168,0.253 -0.393,0.351 -0.66,0.323c-0.253,-0.014 -0.59,-0.126 -0.998,-0.323l-31.62,-15.726c-0.38,-0.225 -0.661,-0.675 -0.843,-1.378c-0.183,-0.703 -0.267,-1.757 -0.267,-3.148c0,-0.716 0.027,-1.349 0.084,-1.883c0.056,-0.534 0.126,-0.97 0.211,-1.307c0.07,-0.351 0.197,-0.618 0.337,-0.829c0.155,-0.211 0.324,-0.365 0.521,-0.477l31.578,-15.642c0.787,-0.379 1.349,-0.309 1.686,0.225c0.323,0.534 0.492,1.616 0.492,3.261c0,1.124 -0.014,2.009 -0.057,2.67c-0.042,0.646 -0.126,1.167 -0.239,1.56c-0.099,0.379 -0.253,0.646 -0.45,0.815c-0.197,0.169 -0.45,0.323 -0.787,0.492l-23.765,11.13l23.315,10.793c0.407,0.197 0.744,0.379 1.011,0.576c0.268,0.196 0.464,0.491 0.604,0.885c0.127,0.408 0.225,0.942 0.281,1.616c0.056,0.674 0.085,1.588 0.085,2.741Zm14.672,17.834c-0.141,0.352 -0.309,0.647 -0.534,0.871c-0.225,0.211 -0.534,0.394 -0.927,0.534c-0.393,0.126 -0.886,0.239 -1.476,0.309c-0.59,0.07 -1.335,0.098 -2.248,0.098c-1.124,0 -2.038,-0.056 -2.755,-0.169c-0.717,-0.112 -1.251,-0.267 -1.616,-0.492c-0.379,-0.224 -0.59,-0.506 -0.646,-0.843c-0.057,-0.337 0,-0.745 0.169,-1.208l24.622,-69.129c0.112,-0.366 0.281,-0.661 0.491,-0.885c0.225,-0.239 0.52,-0.422 0.914,-0.562c0.379,-0.126 0.885,-0.239 1.504,-0.309c0.619,-0.071 1.377,-0.098 2.249,-0.098c1.166,0 2.094,0.056 2.796,0.168c0.703,0.113 1.223,0.267 1.588,0.492c0.351,0.211 0.562,0.506 0.618,0.843c0.056,0.337 0.014,0.745 -0.126,1.209l-24.622,69.171Zm64.983,-34.318c0,0.717 -0.028,1.335 -0.085,1.855c-0.056,0.52 -0.126,0.956 -0.224,1.321c-0.098,0.352 -0.225,0.633 -0.366,0.843c-0.155,0.197 -0.323,0.351 -0.52,0.436l-31.578,15.656c-0.38,0.196 -0.703,0.281 -0.984,0.253c-0.282,-0.028 -0.506,-0.183 -0.675,-0.464c-0.183,-0.267 -0.309,-0.674 -0.379,-1.208c-0.071,-0.534 -0.098,-1.223 -0.098,-2.038c0,-1.124 0.014,-2.024 0.056,-2.684c0.042,-0.661 0.126,-1.181 0.225,-1.56c0.113,-0.394 0.267,-0.675 0.463,-0.844c0.183,-0.182 0.45,-0.337 0.773,-0.478l23.694,-11.13l-23.244,-10.793c-0.436,-0.197 -0.787,-0.379 -1.04,-0.576c-0.267,-0.197 -0.464,-0.492 -0.604,-0.886c-0.126,-0.407 -0.225,-0.941 -0.267,-1.616c-0.042,-0.674 -0.056,-1.588 -0.056,-2.74c0,-1.012 0.028,-1.813 0.098,-2.389c0.07,-0.576 0.196,-0.984 0.379,-1.236c0.168,-0.253 0.393,-0.351 0.675,-0.323c0.281,0.014 0.604,0.126 0.984,0.323l31.62,15.782c0.351,0.168 0.632,0.604 0.843,1.32c0.21,0.717 0.309,1.771 0.309,3.176Zm13.919,-53.697l-31.647,-32.426l0,17.114c0,8.422 6.89,15.312 15.312,15.312l16.335,0Z" style="fill:#4a5bbd;"/></g></g></svg>