<?xml version="1.0" encoding="UTF-8" standalone="no"?><!DOCTYPE svg PUBLIC "-//W3C//DTD SVG 1.1//EN" "http://www.w3.org/Graphics/SVG/1.1/DTD/svg11.dtd"><svg width="120px" height="120px" viewBox="0 0 256 256" version="1.1" xmlns="http://www.w3.org/2000/svg" xmlns:xlink="http://www.w3.org/1999/xlink" xml:space="preserve" xmlns:serif="http://www.serif.com/" style="fill-rule:evenodd;clip-rule:evenodd;stroke-linejoin:round;stroke-miterlimit:2;"><rect id="presentations" x="0" y="0" width="256" height="256" style="fill:none;"/><g id="presentations1" serif:id="presentations"><g><path d="M117.583,227.876l-28.186,18.238c-1.761,1.136 -3.719,1.678 -5.656,1.678c-3.417,0 -6.76,-1.678 -8.75,-4.761c-3.125,-4.833 -1.74,-11.282 3.083,-14.407l39.509,-25.565l0,-7.351l20.833,0l0,7.343l39.521,25.573c4.824,3.125 6.209,9.572 3.084,14.407c-2,3.083 -5.345,4.759 -8.761,4.759c-1.938,0 -3.907,-0.541 -5.646,-1.676l-28.199,-18.246l0,9.507c0,5.75 -4.667,10.417 -10.417,10.417c-5.75,0 -10.416,-4.667 -10.416,-10.417l0,-9.499Z" style="fill:#ccdeff;"/><path d="M26.439,65.5l203.125,0c1.782,0 3.5,-0.26 5.209,-0.531l0,80.849c0,21.8 -17.674,39.474 -39.474,39.474l-134.595,0c-21.801,0 -39.474,-17.674 -39.474,-39.474l0,-80.849c1.708,0.271 3.427,0.531 5.208,0.531Z" style="fill:url(#_Linear1);fill-rule:nonzero;"/><path d="M229.563,55.083l-203.126,0c-12.927,0 -23.437,-10.51 -23.437,-23.438c0,-12.927 10.51,-23.438 23.438,-23.438l203.126,0c12.926,0 23.437,10.511 23.437,23.438c0,12.927 -10.511,23.438 -23.437,23.438Z" style="fill:#48d1cc;fill-rule:nonzero;"/></g></g><defs><linearGradient id="_Linear1" x1="0" y1="0" x2="1" y2="0" gradientUnits="userSpaceOnUse" gradientTransform="matrix(0,120.323158,-120.323158,0,128.001316,64.968618)"><stop offset="0" style="stop-color:#6a82fb;stop-opacity:1"/><stop offset="1" style="stop-color:#4a5bbd;stop-opacity:1"/></linearGradient></defs></svg>