<svg xmlns="http://www.w3.org/2000/svg" width="30px" height="30px" viewBox="0 0 24 23" fill="none">
  <path d="M7.91365 3.40384H6.00442V1.48676C6.00442 1.1003 5.69239 0.786987 5.30751 0.786987C4.92262 0.786987 4.61059 1.1003 4.61059 1.48676V3.40384H2.70131C2.31643 3.40384 2.00439 3.71715 2.00439 4.10361C2.00439 4.49007 2.31643 4.80338 2.70131 4.80338H4.61059V6.72046C4.61059 7.10692 4.92262 7.42023 5.30751 7.42023C5.69239 7.42023 6.00442 7.10692 6.00442 6.72046V4.80338H7.9137C8.29858 4.80338 8.61062 4.49007 8.61062 4.10361C8.61057 3.71715 8.29854 3.40384 7.91365 3.40384Z" fill="var(--brand-secondary)"></path>
  <path d="M14.5021 12.2602C14.536 11.6419 14.0643 11.1131 13.4485 11.079C12.8327 11.045 12.306 11.5186 12.2721 12.137C12.2382 12.7553 12.7099 13.2841 13.3257 13.3182C13.9415 13.3522 14.4682 12.8786 14.5021 12.2602Z" fill="var(--brand-accent-1)"></path>
  <path d="M15.1186 11.2878C15.5034 12.0306 15.3866 12.9704 14.768 13.5934C14.3866 13.9775 13.8856 14.1695 13.3847 14.1695C12.8837 14.1695 12.3828 13.9775 12.0014 13.5935C11.2386 12.8252 11.2386 11.5753 12.0014 10.8071C12.6321 10.1719 13.5897 10.0625 14.3337 10.4778L21.3552 3.40734L13.6726 3.40277H13.6711C11.6088 3.40277 9.81941 4.80996 9.3194 6.82528C8.97062 8.23129 8.57524 9.8249 6.98625 11.9119C6.9095 12.0128 6.83148 12.1136 6.75244 12.2145L13.1003 18.6076C13.2534 18.7618 13.4978 18.7759 13.6698 18.643C15.7422 17.0427 17.3262 16.6441 18.7239 16.2925C20.723 15.7894 22.1204 13.9888 22.1222 11.9136L22.1289 4.22858L15.1186 11.2878Z" fill="var(--brand-primary)"></path>
  <path d="M4.78789 18.6004C3.61871 17.4265 3.61871 15.5231 4.78789 14.3491L6.02021 13.1118L12.5181 19.6363L11.2858 20.8736C10.1166 22.0476 8.22101 22.0476 7.05183 20.8736L4.78789 18.6004Z" fill="var(--brand-accent-1)"></path>
</svg>
