<?xml version="1.0" encoding="UTF-8" standalone="no"?><!DOCTYPE svg PUBLIC "-//W3C//DTD SVG 1.1//EN" "http://www.w3.org/Graphics/SVG/1.1/DTD/svg11.dtd"><svg width="120px" height="120px" viewBox="0 0 256 256" version="1.1" xmlns="http://www.w3.org/2000/svg" xmlns:xlink="http://www.w3.org/1999/xlink" xml:space="preserve" xmlns:serif="http://www.serif.com/" style="fill-rule:evenodd;clip-rule:evenodd;stroke-linejoin:round;stroke-miterlimit:2;"><rect id="imagefx" x="0" y="0" width="256" height="256" style="fill:none;"/><g id="imagefx1" serif:id="imagefx"><g><path d="M3,153.078l0,-75.078c0,-34.518 27.982,-62.5 62.5,-62.5l125,0c34.517,0 62.5,27.982 62.5,62.5l0,100c0,8.737 -1.793,17.056 -5.031,24.608l-23.49,-29.643c-16.096,-20.313 -44.884,-25.285 -66.862,-11.549l-13.158,8.223c-5.519,3.45 -12.78,1.886 -16.39,-3.529l-22.606,-33.907c-18.87,-28.305 -59.664,-30.485 -81.442,-4.351l-21.022,25.227Z" style="fill:#6a82fb;"/><path d="M244.279,209.863c-10.891,18.342 -30.899,30.637 -53.779,30.637l-125,0c-27.063,0 -50.109,-17.202 -58.801,-41.268l-0,-39.037l23.006,-27.609c18.613,-22.335 53.477,-20.472 69.603,3.719l22.606,33.907c5.829,8.744 17.553,11.269 26.466,5.699l13.158,-8.223c18.783,-11.739 43.387,-7.49 57.143,9.87l25.598,32.304Z" style="fill:#4a5bbd;"/><path d="M186.314,101.723c-13.808,0 -25,-11.193 -25,-25c0,-13.807 11.192,-25 25,-25c13.807,0 25,11.193 25,25c0,13.807 -11.193,25 -25,25Z" style="fill:#48d1cc;"/></g></g></svg>