<?xml version="1.0" encoding="UTF-8" standalone="no"?><!DOCTYPE svg PUBLIC "-//W3C//DTD SVG 1.1//EN" "http://www.w3.org/Graphics/SVG/1.1/DTD/svg11.dtd"><svg width="120px" height="120px" viewBox="0 0 256 256" version="1.1" xmlns="http://www.w3.org/2000/svg" xmlns:xlink="http://www.w3.org/1999/xlink" xml:space="preserve" xmlns:serif="http://www.serif.com/" style="fill-rule:evenodd;clip-rule:evenodd;stroke-linejoin:round;stroke-miterlimit:2;"><rect id="motiongr" x="0" y="0" width="256" height="256" style="fill:none;"/><g id="motiongr1" serif:id="motiongr"><g><path d="M215.336,117.169l0,90.822c0,12.911 -10.482,23.393 -23.393,23.393l-165.549,0c-12.911,0 -23.393,-10.482 -23.393,-23.393l0,-90.822c0,-12.911 10.482,-23.393 23.393,-23.393l165.549,0c12.911,0 23.393,10.482 23.393,23.393Z" style="fill:#3f51b5;fill-opacity:0.5;"/><path d="M253,64.421l0,116.011c0,12.227 -9.927,22.154 -22.154,22.154l-157.094,0c-12.227,0 -22.154,-9.927 -22.154,-22.154l-0,-116.011c0,-12.227 9.927,-22.154 22.154,-22.154l157.094,0c12.227,0 22.154,9.927 22.154,22.154Z" style="fill:#6a82fb;"/><path d="M169.11,118.185l-28.479,-17.266c-1.532,-0.929 -3.445,-0.959 -5.006,-0.08c-1.561,0.879 -2.527,2.531 -2.527,4.323l0,34.533c0,1.791 0.966,3.444 2.527,4.323c1.561,0.879 3.474,0.848 5.006,-0.08l28.479,-17.266c1.483,-0.899 2.389,-2.508 2.389,-4.242c0,-1.734 -0.906,-3.343 -2.389,-4.242Z" style="fill:#ccdeff;"/><path d="M244.704,46.77l0,116.011c0,12.227 -9.927,22.154 -22.154,22.154l-162.56,0c-12.227,0 -22.154,-9.927 -22.154,-22.154l-0,-116.011c0,-12.227 9.927,-22.154 22.154,-22.154l162.56,0c12.227,0 22.154,9.927 22.154,22.154Zm-8.489,-0c0,-7.542 -6.123,-13.665 -13.665,-13.665l-162.56,0c-7.542,0 -13.665,6.123 -13.665,13.665l0,116.011c0,7.542 6.123,13.665 13.665,13.665l162.56,0c7.542,0 13.665,-6.123 13.665,-13.665l-0,-116.011Z" style="fill:#48d1cc;"/></g></g></svg>