<?xml version="1.0" encoding="UTF-8" standalone="no"?><!DOCTYPE svg PUBLIC "-//W3C//DTD SVG 1.1//EN" "http://www.w3.org/Graphics/SVG/1.1/DTD/svg11.dtd"><svg width="120px" height="120px" viewBox="0 0 256 256" version="1.1" xmlns="http://www.w3.org/2000/svg" xmlns:xlink="http://www.w3.org/1999/xlink" xml:space="preserve" xmlns:serif="http://www.serif.com/" style="fill-rule:evenodd;clip-rule:evenodd;stroke-linejoin:round;stroke-miterlimit:2;"><rect id="nocodeweb" x="0" y="0" width="256" height="256" style="fill:none;"/><g id="nocodeweb1" serif:id="nocodeweb"><g><g><path d="M253,72.242l0,137.094c0,11.3 -9.009,20.462 -20.121,20.462l-209.759,0c-11.112,0 -20.121,-9.162 -20.121,-20.462l0,-137.094l250,0Z" style="fill:#6a82fb;fill-rule:nonzero;"/><path d="M253,46.664l0,25.577l-250,0l0,-25.577c0,-11.3 9.009,-20.462 20.121,-20.462l209.759,0c11.112,0 20.121,9.162 20.121,20.462Z" style="fill:#2a2d34;fill-rule:nonzero;"/><path d="M26.013,60.604c-6.241,0 -11.318,-5.164 -11.318,-11.51c0,-6.346 5.077,-11.51 11.318,-11.51c6.241,0 11.318,5.164 11.318,11.51c0,6.346 -5.077,11.51 -11.318,11.51Z" style="fill:url(#_Linear1);fill-rule:nonzero;"/><path d="M58.332,60.732c-6.241,0 -11.318,-5.164 -11.318,-11.51c0,-6.346 5.077,-11.51 11.318,-11.51c6.241,0 11.318,5.164 11.318,11.51c0,6.346 -5.077,11.51 -11.318,11.51Z" style="fill:url(#_Linear2);fill-rule:nonzero;"/><path d="M90.525,60.732c-6.241,0 -11.318,-5.164 -11.318,-11.51c0,-6.346 5.077,-11.51 11.318,-11.51c6.241,0 11.318,5.164 11.318,11.51c0,6.346 -5.077,11.51 -11.318,11.51Z" style="fill:#ccdeff;fill-rule:nonzero;"/><path d="M230.364,60.732l-107.143,0c-6.241,0 -11.318,-5.164 -11.318,-11.51c0,-6.346 5.077,-11.51 11.318,-11.51l107.143,0c6.241,0 11.318,5.164 11.318,11.51c0,6.346 -5.077,11.51 -11.318,11.51Z" style="fill:#ccdeff;fill-rule:nonzero;"/><path d="M112.003,196.242c-1.056,0 -2.128,-0.217 -3.158,-0.674c-3.998,-1.776 -5.824,-6.511 -4.077,-10.578l31.986,-74.473c1.747,-4.065 6.403,-5.92 10.401,-4.146c3.998,1.776 5.824,6.511 4.077,10.578l-31.986,74.472c-1.297,3.019 -4.198,4.82 -7.244,4.82Z" style="fill:url(#_Linear3);fill-rule:nonzero;"/><path d="M80.406,193.347c-2.022,0 -4.044,-0.784 -5.586,-2.353l-29.624,-30.126c-3.084,-3.137 -3.084,-8.224 0,-11.361l29.229,-29.724c3.085,-3.137 8.087,-3.137 11.172,0c3.085,3.137 3.085,8.224 0,11.361l-23.643,24.044l24.038,24.445c3.085,3.137 3.085,8.224 0,11.361c-1.543,1.569 -3.565,2.353 -5.586,2.353Z" style="fill:url(#_Linear4);fill-rule:nonzero;"/><path d="M175.594,193.347c2.022,0 4.044,-0.784 5.586,-2.353l29.624,-30.126c3.085,-3.137 3.085,-8.224 0,-11.361l-29.229,-29.724c-3.085,-3.137 -8.087,-3.137 -11.172,0c-3.084,3.137 -3.084,8.224 0,11.361l23.643,24.044l-24.038,24.445c-3.084,3.137 -3.084,8.224 0,11.361c1.543,1.569 3.565,2.353 5.586,2.353Z" style="fill:url(#_Linear5);fill-rule:nonzero;"/></g></g></g><defs><linearGradient id="_Linear1" x1="0" y1="0" x2="1" y2="0" gradientUnits="userSpaceOnUse" gradientTransform="matrix(23.154576,1.579831,-1.579831,23.154576,16.312076,40.36286)"><stop offset="0" style="stop-color:#ff6b6b;stop-opacity:1"/><stop offset="1" style="stop-color:#ff6b6b;stop-opacity:1"/></linearGradient><linearGradient id="_Linear2" x1="0" y1="0" x2="1" y2="0" gradientUnits="userSpaceOnUse" gradientTransform="matrix(0,23.019322,-23.019322,0,58.332203,37.712394)"><stop offset="0" style="stop-color:#48d1cc;stop-opacity:1"/><stop offset="1" style="stop-color:#48d1cc;stop-opacity:1"/></linearGradient><linearGradient id="_Linear3" x1="0" y1="0" x2="1" y2="0" gradientUnits="userSpaceOnUse" gradientTransform="matrix(0,90.54322,-90.54322,0,128,105.698665)"><stop offset="0" style="stop-color:#ccdeff;stop-opacity:1"/><stop offset="1" style="stop-color:#e9f1ff;stop-opacity:1"/></linearGradient><linearGradient id="_Linear4" x1="0" y1="0" x2="1" y2="0" gradientUnits="userSpaceOnUse" gradientTransform="matrix(0,75.916949,-75.916949,0,65.594492,117.430021)"><stop offset="0" style="stop-color:#6a82fb;stop-opacity:1"/><stop offset="1" style="stop-color:#e9f1ff;stop-opacity:1"/></linearGradient><linearGradient id="_Linear5" x1="0" y1="0" x2="1" y2="0" gradientUnits="userSpaceOnUse" gradientTransform="matrix(0,75.916949,-75.916949,0,190.405932,117.430021)"><stop offset="0" style="stop-color:#ccdeff;stop-opacity:1"/><stop offset="1" style="stop-color:#e9f1ff;stop-opacity:1"/></linearGradient></defs></svg>