<?xml version="1.0" encoding="UTF-8" standalone="no"?><!DOCTYPE svg PUBLIC "-//W3C//DTD SVG 1.1//EN" "http://www.w3.org/Graphics/SVG/1.1/DTD/svg11.dtd"><svg width="120px" height="120px" viewBox="0 0 256 256" version="1.1" xmlns="http://www.w3.org/2000/svg" xmlns:xlink="http://www.w3.org/1999/xlink" xml:space="preserve" xmlns:serif="http://www.serif.com/" style="fill-rule:evenodd;clip-rule:evenodd;stroke-linejoin:round;stroke-miterlimit:2;"><rect id="packaging" x="0" y="0" width="256" height="256" style="fill:none;"/><g id="packaging1" serif:id="packaging"><g><path d="M40.786,97.441l87.211,50.351l0,100.704l-80.922,-46.72c-3.474,-2.006 -6.29,-6.883 -6.29,-10.894l0,-93.441Z" style="fill:#2d264b;fill-rule:nonzero;"/><path d="M40.786,97.441l87.211,50.351l0,100.704l-80.922,-46.72c-3.474,-2.006 -6.29,-6.883 -6.29,-10.894l0,-93.441Z" style="fill:url(#_Linear1);fill-rule:nonzero;"/><path d="M215.213,97.441l-87.212,50.351l0,100.704l80.921,-46.72c3.475,-2.006 6.29,-6.883 6.29,-10.894l0,-93.441Z" style="fill:#6a82fb;fill-rule:nonzero;"/><path d="M128.002,47.09l-87.211,50.352l87.211,50.352l87.211,-50.352l-87.211,-50.352Z" style="fill:#48d1cc;"/><path d="M215.212,97.441l-87.212,-50.352l37.788,-39.586l87.212,50.352l-37.788,39.586Z" style="fill:#48d1cc;fill-opacity:0.6;fill-rule:nonzero;"/><path d="M40.787,97.441l87.212,-50.352l-37.787,-39.586l-87.212,50.352l37.787,39.586Z" style="fill:url(#_Linear2);fill-rule:nonzero;"/></g></g><defs><linearGradient id="_Linear1" x1="0" y1="0" x2="1" y2="0" gradientUnits="userSpaceOnUse" gradientTransform="matrix(-43.60575,75.526667,-75.526667,-43.60575,84.392078,122.617593)"><stop offset="0" style="stop-color:#6a82fb;stop-opacity:1"/><stop offset="1" style="stop-color:#4a5bbd;stop-opacity:1"/></linearGradient><linearGradient id="_Linear2" x1="0" y1="0" x2="1" y2="0" gradientUnits="userSpaceOnUse" gradientTransform="matrix(67.619125,-89.462533,89.462533,67.619125,1.357583,66.214222)"><stop offset="0" style="stop-color:#48d1cc;stop-opacity:1"/><stop offset="1" style="stop-color:#7ff0ec;stop-opacity:1"/></linearGradient></defs></svg>