<?xml version="1.0" encoding="UTF-8" standalone="no"?><!DOCTYPE svg PUBLIC "-//W3C//DTD SVG 1.1//EN" "http://www.w3.org/Graphics/SVG/1.1/DTD/svg11.dtd"><svg width="120px" height="120px" viewBox="0 0 256 256" version="1.1" xmlns="http://www.w3.org/2000/svg" xmlns:xlink="http://www.w3.org/1999/xlink" xml:space="preserve" xmlns:serif="http://www.serif.com/" style="fill-rule:evenodd;clip-rule:evenodd;stroke-linejoin:round;stroke-miterlimit:2;"><rect id="prints" x="0" y="0" width="256" height="256" style="fill:none;"/><g id="prints1" serif:id="prints"><g><path d="M219.988,170.106l0,61.486c0,0.676 -0.557,1.233 -1.235,1.233l-16.255,0l0,-62.719l17.49,0l0,0Zm-166.487,62.719l-16.255,0c-0.678,0 -1.235,-0.557 -1.235,-1.233l0,-61.486l17.49,0l0,62.719l0,-0Z" style="fill:#4a5bbd;"/><path d="M24.162,71.109l207.675,0c7.37,0 13.399,6.029 13.399,13.399l0,66.992c0,7.37 -6.029,13.398 -13.399,13.398l-207.675,0c-7.37,0 -13.399,-6.029 -13.399,-13.398l0,-66.992c0,-7.369 6.029,-13.399 13.399,-13.399Zm187.177,59.387c4.45,0 8.058,3.608 8.058,8.057c0,4.45 -3.608,8.058 -8.058,8.058c-4.45,0 -8.058,-3.608 -8.058,-8.058c0,-4.45 3.608,-8.057 8.058,-8.057Zm0,-41.1c4.45,0 8.058,3.608 8.058,8.057c0,4.45 -3.608,8.058 -8.058,8.058c-4.45,0 -8.058,-3.608 -8.058,-8.058c0,-4.45 3.608,-8.057 8.058,-8.057Z" style="fill:#6a82fb;"/><path d="M209.507,65.9l0,-61.279c0,-0.892 -0.73,-1.622 -1.622,-1.622l-159.772,0c-0.892,0 -1.622,0.73 -1.622,1.622l0,61.279l163.015,0l-0,0Z" style="fill:#48d1cc;"/><path d="M197.29,170.106l0,82.894l-138.581,0l0,-82.894l138.581,0Zm-70.688,41.607l-11.875,0l0,9.277l5.752,0l9.648,16.328l11.689,0l-15.215,-25.605Zm19.992,0l-13.127,0l15.464,25.587l11.717,0.017l-10.112,-16.883c9.175,-1.933 12.761,-12.277 7.552,-19.938c-2.861,-4.207 -7.209,-6.191 -12.234,-6.414c-9.477,-0.419 -19.258,0.325 -28.767,0c-9.659,0.141 -18.216,6.347 -20.87,15.682c-4.089,14.384 6.794,27.9 21.519,27.557l5.338,-0.004c0,0 -4.137,-7.009 -5.79,-9.933c-1.646,-0.201 -3.132,-0.425 -4.662,-1.09c-10.825,-4.705 -7.883,-20.643 3.636,-21.816c8.474,-0.047 16.949,0.055 25.422,0.003c2.596,-0.016 6.422,-0.816 7.76,2.158c0.986,2.192 -0.451,4.79 -2.847,5.074Z" style="fill:#48d1cc;"/></g></g></svg>