<?xml version="1.0" encoding="UTF-8" standalone="no"?><!DOCTYPE svg PUBLIC "-//W3C//DTD SVG 1.1//EN" "http://www.w3.org/Graphics/SVG/1.1/DTD/svg11.dtd"><svg width="120px" height="120px" viewBox="0 0 256 256" version="1.1" xmlns="http://www.w3.org/2000/svg" xmlns:xlink="http://www.w3.org/1999/xlink" xml:space="preserve" xmlns:serif="http://www.serif.com/" style="fill-rule:evenodd;clip-rule:evenodd;stroke-linejoin:round;stroke-miterlimit:2;"><rect id="publishing" x="0" y="0" width="256" height="256" style="fill:none;"/><g id="publishing1" serif:id="publishing"><g><path d="M86.223,242.329l104.684,-39.134c4.709,-1.761 8.486,-7.652 5.525,-11.719c-9.092,-12.512 -16.851,-25.547 -23.215,-39.125c-13.895,3.514 -24.494,17.467 -35.785,34.492c-5.654,-21.302 -1.052,-54.683 17.801,-92.769c-1.601,-9.917 -2.56,-20.089 -2.854,-30.519c-0.071,-2.626 -2.502,-4.308 -4.887,-5.405c-2.385,-1.101 -4.852,-1.186 -7.282,-0.21l-99.863,40.039c-2.399,0.963 -4.138,2.635 -5.15,5.012c-1.012,2.386 -0.919,4.762 -0.027,7.193l42.501,115.346l-56.98,-104.974c-0.718,-1.315 -2.007,-2.074 -3.501,-2.06c-1.494,0.009 -2.773,0.789 -3.465,2.118l-3.465,6.622c-1.579,3.014 -1.44,6.386 0.379,9.262l64.484,102.089c2.372,3.759 6.939,5.298 11.099,3.741Z" style="fill:#4a5bbd;"/><path d="M207.129,167.825c1.971,2.519 2.841,6.943 2.426,10.372l0.504,0.062l0.508,0.062c0.415,-3.429 2.323,-7.518 4.843,-9.489c2.519,-1.971 5.793,-2.983 9.217,-2.564l0.062,-0.508l0.062,-0.504c-3.425,-0.419 -6.363,-2.185 -8.334,-4.704c-1.971,-2.519 -2.881,-6.631 -2.461,-10.06l-0.508,-0.062l-0.504,-0.058c-0.419,3.425 -2.288,7.202 -4.807,9.173c-2.519,1.971 -5.792,2.983 -9.217,2.564l-0.062,0.508l-0.062,0.504c3.429,0.419 6.363,2.185 8.334,4.704Z" style="fill:#48d1cc;"/><path d="M232.453,150.296c-1.467,1.15 -4.049,1.654 -6.051,1.414l-0.035,0.294l-0.036,0.294c1.998,0.245 4.383,1.36 5.534,2.827c1.151,1.472 1.739,3.38 1.498,5.382l0.294,0.036l0.294,0.036c0.245,-2.002 1.275,-3.715 2.747,-4.865c1.467,-1.15 3.866,-1.681 5.864,-1.436l0.04,-0.294l0.036,-0.294c-2.002,-0.245 -4.201,-1.338 -5.355,-2.805c-1.151,-1.472 -1.735,-3.38 -1.494,-5.378l-0.294,-0.036l-0.299,-0.04c-0.241,2.002 -1.275,3.714 -2.742,4.865Z" style="fill:#48d1cc;"/><path d="M131.136,252.041l59.468,-43.597l-74.433,37.221c-0.571,0.285 -0.968,0.771 -0.977,1.414c-0.009,0.638 0.352,1.186 0.941,1.436l9.106,3.862c1.971,0.838 4.165,0.932 5.895,-0.334Z" style="fill:#6a82fb;"/><path d="M202.589,128.018c6.216,-1.365 14.087,-5.253 23.616,-11.67c-7.144,4.053 -14.02,6.47 -20.633,7.251c6.011,-1.583 13.467,-5.373 22.363,-11.366c-4.531,2.573 -8.954,4.486 -13.275,5.739c24.383,-17.275 35.111,-42.942 31.482,-73.581c-1.677,-14.158 -12.744,-38.697 -22.358,-41.39c7.924,8.455 8.08,17.319 2.684,28.369c-10.649,21.801 -26.051,16.891 -41.386,46.42c1.057,-5.159 3.064,-10.488 6.006,-16c-5.766,9.048 -9.364,16.593 -10.8,22.639c0.615,-6.631 2.858,-13.565 6.733,-20.807c-4.219,6.617 -7.278,12.428 -9.177,17.444c-0.214,-3.126 -0.071,-6.243 0.25,-8.553c-25.895,32.811 -37.337,71.048 -36.628,79.855c6.461,-13.632 39.928,-45.194 56.904,-60.676c9.217,-8.406 19.656,-17.855 26.193,-28.035c-13.832,27.611 -86.232,76.109 -84.858,111.221c17.872,-45.042 57.684,-22.809 73.318,-48.944c-3.17,1.195 -6.769,1.824 -10.434,2.082Z" style="fill:#6a82fb;"/></g></g></svg>