<?xml version="1.0" encoding="UTF-8" standalone="no"?><!DOCTYPE svg PUBLIC "-//W3C//DTD SVG 1.1//EN" "http://www.w3.org/Graphics/SVG/1.1/DTD/svg11.dtd"><svg width="120px" height="120px" viewBox="0 0 256 256" version="1.1" xmlns="http://www.w3.org/2000/svg" xmlns:xlink="http://www.w3.org/1999/xlink" xml:space="preserve" xmlns:serif="http://www.serif.com/" style="fill-rule:evenodd;clip-rule:evenodd;stroke-linejoin:round;stroke-miterlimit:2;"><rect id="islamic-vids" x="0" y="0" width="256" height="256" style="fill:none;"/><g id="islamic-vids1" serif:id="islamic-vids"><g><path d="M33.675,237.257l-4.597,0l0,-219.193l4.597,-0l0,-3.414l-2.625,-2.672l-1.792,-1.824l1.792,-1.825l3.379,-3.44l1.855,-1.888l1.855,1.888l3.379,3.44l1.793,1.825l-1.793,1.824l-2.625,2.672l0,3.414l8.891,0l0,-3.414l-2.625,-2.672l-1.792,-1.824l1.792,-1.825l3.379,-3.44l1.855,-1.888l1.855,1.888l3.379,3.44l1.793,1.825l-1.793,1.824l-2.625,2.672l0,3.414l8.891,0l0,-3.414l-2.625,-2.672l-1.792,-1.824l1.792,-1.825l3.379,-3.44l1.855,-1.888l1.855,1.888l3.379,3.44l1.793,1.825l-1.793,1.824l-2.625,2.672l0,3.414l8.891,0l0,-3.414l-2.625,-2.672l-1.792,-1.824l1.792,-1.825l3.379,-3.44l1.855,-1.888l1.855,1.888l3.379,3.44l1.793,1.825l-1.793,1.824l-2.625,2.672l0,3.414l8.891,0l0,-3.414l-2.625,-2.672l-1.792,-1.824l1.792,-1.825l3.379,-3.44l1.855,-1.888l1.855,1.888l3.379,3.44l1.793,1.825l-1.793,1.824l-2.625,2.672l0,3.414l8.891,0l0,-3.414l-2.625,-2.672l-1.792,-1.824l1.792,-1.825l3.379,-3.44l1.855,-1.888l1.855,1.888l3.379,3.44l1.793,1.825l-1.793,1.824l-2.625,2.672l0,3.414l8.891,0l0,-3.414l-2.625,-2.672l-1.792,-1.824l1.792,-1.825l3.379,-3.44l1.855,-1.888l1.855,1.888l3.38,3.44l1.792,1.825l-1.792,1.824l-2.625,2.672l0,3.414l8.891,0l0,-3.413l-2.626,-2.673l-1.792,-1.824l1.792,-1.825l3.379,-3.44l1.856,-1.888l1.854,1.888l3.379,3.44l1.792,1.825l-1.792,1.824l-2.624,2.671l-0,3.415l8.892,0l0,-3.413l-2.626,-2.673l-1.792,-1.824l1.792,-1.825l3.379,-3.44l1.854,-1.888l1.856,1.888l3.379,3.44l1.792,1.825l-1.792,1.824l-2.624,2.671l0,3.415l8.89,0l0,-3.415l-2.624,-2.671l-1.792,-1.824l1.792,-1.825l3.379,-3.44l1.854,-1.888l1.856,1.888l3.379,3.44l1.792,1.825l-1.792,1.824l-2.626,2.673l0,3.413l8.892,0l0,-3.413l-2.626,-2.673l-1.792,-1.824l1.792,-1.825l3.379,-3.44l1.856,-1.888l1.854,1.888l3.381,3.44l1.792,1.825l-1.792,1.824l-2.626,2.672l0,3.414l8.892,0l0,-3.413l-2.626,-2.673l-1.792,-1.824l1.792,-1.825l3.379,-3.44l1.854,-1.888l1.856,1.888l3.379,3.44l1.792,1.825l-1.792,1.824l-2.624,2.671l0,3.415l8.89,0l0,-3.415l-2.624,-2.671l-1.792,-1.824l1.792,-1.825l3.379,-3.44l1.854,-1.888l1.856,1.888l3.379,3.44l1.792,1.825l-1.792,1.824l-2.626,2.673l0,3.413l8.892,0l0,-3.415l-2.624,-2.671l-1.792,-1.824l1.792,-1.825l3.379,-3.44l1.854,-1.888l1.856,1.888l3.379,3.44l1.792,1.825l-1.792,1.824l-2.626,2.673l0,3.413l4.597,0l0,219.193l-4.597,0l0,4.093l2.626,2.673l1.792,1.825l-1.792,1.825l-3.379,3.44l-1.856,1.889l-1.854,-1.889l-3.379,-3.44l-1.792,-1.825l1.792,-1.825l2.624,-2.671l0,-4.094l-8.892,0l0,4.093l2.626,2.673l1.792,1.825l-1.792,1.825l-3.379,3.44l-1.856,1.889l-1.854,-1.889l-3.379,-3.44l-1.792,-1.825l1.792,-1.825l2.624,-2.671l0,-4.094l-8.89,0l0,4.094l2.624,2.671l1.792,1.825l-1.792,1.825l-3.379,3.44l-1.856,1.889l-1.854,-1.889l-3.379,-3.44l-1.792,-1.825l1.792,-1.825l2.626,-2.673l0,-4.093l-8.892,0l0,4.094l2.626,2.671l1.792,1.825l-1.792,1.825l-3.381,3.44l-1.854,1.889l-1.856,-1.889l-3.379,-3.44l-1.792,-1.825l1.792,-1.825l2.626,-2.673l0,-4.093l-8.892,0l0,4.093l2.626,2.673l1.792,1.825l-1.792,1.825l-3.379,3.44l-1.856,1.889l-1.854,-1.889l-3.379,-3.44l-1.792,-1.825l1.792,-1.825l2.624,-2.671l0,-4.094l-8.89,0l0,4.094l2.624,2.671l1.792,1.825l-1.792,1.825l-3.379,3.44l-1.856,1.889l-1.854,-1.889l-3.379,-3.44l-1.792,-1.825l1.792,-1.825l2.626,-2.673l0,-4.093l-8.892,0l0,4.094l2.624,2.671l1.792,1.825l-1.792,1.825l-3.379,3.44l-1.854,1.889l-1.856,-1.889l-3.379,-3.44l-1.792,-1.825l1.792,-1.825l2.626,-2.673l0,-4.093l-8.891,0l0,4.093l2.625,2.672l1.792,1.825l-1.792,1.825l-3.38,3.44l-1.855,1.889l-1.855,-1.889l-3.379,-3.44l-1.792,-1.825l1.792,-1.825l2.625,-2.672l0,-4.093l-8.891,0l-0,4.094l2.625,2.672l1.793,1.825l-1.793,1.825l-3.379,3.44l-1.855,1.889l-1.855,-1.889l-3.379,-3.44l-1.792,-1.825l1.792,-1.825l2.625,-2.672l0,-4.093l-8.891,0l0,4.094l2.625,2.672l1.793,1.825l-1.793,1.825l-3.379,3.44l-1.855,1.889l-1.855,-1.889l-3.379,-3.44l-1.792,-1.825l1.792,-1.825l2.625,-2.672l0,-4.093l-8.891,0l0,4.094l2.625,2.672l1.793,1.825l-1.793,1.825l-3.379,3.44l-1.855,1.889l-1.855,-1.889l-3.379,-3.44l-1.792,-1.825l1.792,-1.825l2.625,-2.672l0,-4.093l-8.891,0l0,4.094l2.625,2.672l1.793,1.825l-1.793,1.825l-3.379,3.44l-1.855,1.889l-1.855,-1.889l-3.379,-3.44l-1.792,-1.825l1.792,-1.825l2.625,-2.672l0,-4.093l-8.891,0l-0,4.094l2.625,2.672l1.793,1.825l-1.793,1.825l-3.379,3.44l-1.855,1.889l-1.855,-1.889l-3.379,-3.44l-1.792,-1.825l1.792,-1.825l2.625,-2.672l-0,-4.093l-8.891,0l-0,4.094l2.625,2.672l1.793,1.825l-1.793,1.825l-3.379,3.44l-1.855,1.889l-1.855,-1.889l-3.379,-3.44l-1.792,-1.825l1.792,-1.825l2.625,-2.672l0,-4.093Z" style="fill:#4a5bbd;"/><path d="M33.675,237.257l-4.597,0l0,-219.193l4.597,-0l0,-3.414l-2.625,-2.672l-1.792,-1.824l1.792,-1.825l3.379,-3.44l1.855,-1.888l1.855,1.888l3.379,3.44l1.793,1.825l-1.793,1.824l-2.625,2.672l0,3.414l8.891,0l0,-3.414l-2.625,-2.672l-1.792,-1.824l1.792,-1.825l3.379,-3.44l1.855,-1.888l1.855,1.888l3.379,3.44l1.793,1.825l-1.793,1.824l-2.625,2.672l0,3.414l8.891,0l0,-3.414l-2.625,-2.672l-1.792,-1.824l1.792,-1.825l3.379,-3.44l1.855,-1.888l1.855,1.888l3.379,3.44l1.793,1.825l-1.793,1.824l-2.625,2.672l0,3.414l8.891,0l0,-3.414l-2.625,-2.672l-1.792,-1.824l1.792,-1.825l3.379,-3.44l1.855,-1.888l1.855,1.888l3.379,3.44l1.793,1.825l-1.793,1.824l-2.625,2.672l0,3.414l8.891,0l0,-3.414l-2.625,-2.672l-1.792,-1.824l1.792,-1.825l3.379,-3.44l1.855,-1.888l1.855,1.888l3.379,3.44l1.793,1.825l-1.793,1.824l-2.625,2.672l0,3.414l8.891,0l0,-3.414l-2.625,-2.672l-1.792,-1.824l1.792,-1.825l3.379,-3.44l1.855,-1.888l1.855,1.888l3.379,3.44l1.793,1.825l-1.793,1.824l-2.625,2.672l0,3.414l8.891,0l0,-3.414l-2.625,-2.672l-1.792,-1.824l1.792,-1.825l3.379,-3.44l1.855,-1.888l1.855,1.888l3.38,3.44l1.792,1.825l-1.792,1.824l-2.625,2.672l0,3.414l8.891,0l0,-3.413l-2.626,-2.673l-1.792,-1.824l1.792,-1.825l3.379,-3.44l1.856,-1.888l1.854,1.888l3.379,3.44l1.792,1.825l-1.792,1.824l-2.624,2.671l-0,3.415l8.892,0l0,-3.413l-2.626,-2.673l-1.792,-1.824l1.792,-1.825l3.379,-3.44l1.854,-1.888l1.856,1.888l3.379,3.44l1.792,1.825l-1.792,1.824l-2.624,2.671l0,3.415l8.89,0l0,-3.415l-2.624,-2.671l-1.792,-1.824l1.792,-1.825l3.379,-3.44l1.854,-1.888l1.856,1.888l3.379,3.44l1.792,1.825l-1.792,1.824l-2.626,2.673l0,3.413l8.892,0l0,-3.413l-2.626,-2.673l-1.792,-1.824l1.792,-1.825l3.379,-3.44l1.856,-1.888l1.854,1.888l3.381,3.44l1.792,1.825l-1.792,1.824l-2.626,2.672l0,3.414l8.892,0l0,-3.413l-2.626,-2.673l-1.792,-1.824l1.792,-1.825l3.379,-3.44l1.854,-1.888l1.856,1.888l3.379,3.44l1.792,1.825l-1.792,1.824l-2.624,2.671l0,3.415l8.89,0l0,-3.415l-2.624,-2.671l-1.792,-1.824l1.792,-1.825l3.379,-3.44l1.854,-1.888l1.856,1.888l3.379,3.44l1.792,1.825l-1.792,1.824l-2.626,2.673l0,3.413l8.892,0l0,-3.415l-2.624,-2.671l-1.792,-1.824l1.792,-1.825l3.379,-3.44l1.854,-1.888l1.856,1.888l3.379,3.44l1.792,1.825l-1.792,1.824l-2.626,2.673l0,3.413l4.597,0l0,219.193l-4.597,0l0,4.093l2.626,2.673l1.792,1.825l-1.792,1.825l-3.379,3.44l-1.856,1.889l-1.854,-1.889l-3.379,-3.44l-1.792,-1.825l1.792,-1.825l2.624,-2.671l0,-4.094l-8.892,0l0,4.093l2.626,2.673l1.792,1.825l-1.792,1.825l-3.379,3.44l-1.856,1.889l-1.854,-1.889l-3.379,-3.44l-1.792,-1.825l1.792,-1.825l2.624,-2.671l0,-4.094l-8.89,0l0,4.094l2.624,2.671l1.792,1.825l-1.792,1.825l-3.379,3.44l-1.856,1.889l-1.854,-1.889l-3.379,-3.44l-1.792,-1.825l1.792,-1.825l2.626,-2.673l0,-4.093l-8.892,0l0,4.094l2.626,2.671l1.792,1.825l-1.792,1.825l-3.381,3.44l-1.854,1.889l-1.856,-1.889l-3.379,-3.44l-1.792,-1.825l1.792,-1.825l2.626,-2.673l0,-4.093l-8.892,0l0,4.093l2.626,2.673l1.792,1.825l-1.792,1.825l-3.379,3.44l-1.856,1.889l-1.854,-1.889l-3.379,-3.44l-1.792,-1.825l1.792,-1.825l2.624,-2.671l0,-4.094l-8.89,0l0,4.094l2.624,2.671l1.792,1.825l-1.792,1.825l-3.379,3.44l-1.856,1.889l-1.854,-1.889l-3.379,-3.44l-1.792,-1.825l1.792,-1.825l2.626,-2.673l0,-4.093l-8.892,0l0,4.094l2.624,2.671l1.792,1.825l-1.792,1.825l-3.379,3.44l-1.854,1.889l-1.856,-1.889l-3.379,-3.44l-1.792,-1.825l1.792,-1.825l2.626,-2.673l0,-4.093l-8.891,0l0,4.093l2.625,2.672l1.792,1.825l-1.792,1.825l-3.38,3.44l-1.855,1.889l-1.855,-1.889l-3.379,-3.44l-1.792,-1.825l1.792,-1.825l2.625,-2.672l0,-4.093l-8.891,0l-0,4.094l2.625,2.672l1.793,1.825l-1.793,1.825l-3.379,3.44l-1.855,1.889l-1.855,-1.889l-3.379,-3.44l-1.792,-1.825l1.792,-1.825l2.625,-2.672l0,-4.093l-8.891,0l0,4.094l2.625,2.672l1.793,1.825l-1.793,1.825l-3.379,3.44l-1.855,1.889l-1.855,-1.889l-3.379,-3.44l-1.792,-1.825l1.792,-1.825l2.625,-2.672l0,-4.093l-8.891,0l0,4.094l2.625,2.672l1.793,1.825l-1.793,1.825l-3.379,3.44l-1.855,1.889l-1.855,-1.889l-3.379,-3.44l-1.792,-1.825l1.792,-1.825l2.625,-2.672l0,-4.093l-8.891,0l0,4.094l2.625,2.672l1.793,1.825l-1.793,1.825l-3.379,3.44l-1.855,1.889l-1.855,-1.889l-3.379,-3.44l-1.792,-1.825l1.792,-1.825l2.625,-2.672l0,-4.093l-8.891,0l-0,4.094l2.625,2.672l1.793,1.825l-1.793,1.825l-3.379,3.44l-1.855,1.889l-1.855,-1.889l-3.379,-3.44l-1.792,-1.825l1.792,-1.825l2.625,-2.672l-0,-4.093l-8.891,0l-0,4.094l2.625,2.672l1.793,1.825l-1.793,1.825l-3.379,3.44l-1.855,1.889l-1.855,-1.889l-3.379,-3.44l-1.792,-1.825l1.792,-1.825l2.625,-2.672l0,-4.093Zm167.304,-55.306l-8.444,0l0,8.444l-10.405,10.405l29.255,0l0,-2.61l-0.01,-25.799l-10.395,9.559Zm5.187,2.193l-0,11.437l-11.437,0l3.026,-3.026l0,-5.386l5.386,0l0.765,-0.765l2.261,-2.261Zm-151.145,-2.193l-10.345,-10.273l-0.061,29.122l29.255,0l-10.405,-10.405l0,-8.444l-2.61,0l-5.834,0Zm-2.925,4.454l0.765,0.765l5.386,0l0,5.386l3.026,3.026l-11.437,0l0,-11.437l2.261,2.261Zm-7.486,24.604l-5.093,0l0,5.184l5.093,-5.184Zm22.405,0l-12.462,0l6.231,6.343l6.231,-6.343Zm22.405,0l-12.462,0l6.231,6.343l6.231,-6.343Zm22.405,0l-12.462,0l6.231,6.343l6.231,-6.343Zm22.405,0l-12.462,0l6.231,6.343l6.231,-6.343Zm22.405,0l-12.462,0l6.231,6.343l6.231,-6.343Zm22.405,0l-12.462,0l6.231,6.343l6.231,-6.343Zm22.405,0l-12.462,0l6.231,6.343l6.231,-6.343Zm15.037,5.185l0,-5.185l-5.094,0l5.094,5.185Zm-4.232,10.625l4.232,0l0,-4.308l-4.232,4.308Zm-22.405,0l10.739,0l-5.37,-5.466l-5.37,5.466Zm-22.405,0l10.739,0l-5.37,-5.466l-5.37,5.466Zm-22.405,0l10.739,0l-5.37,-5.466l-5.37,5.466Zm-22.405,0l10.739,0l-5.37,-5.466l-5.37,5.466Zm-22.405,0l10.74,0l-5.37,-5.466l-5.37,5.466Zm-22.405,0l10.739,0l-5.37,-5.466l-5.37,5.466Zm-22.405,0l10.739,0l-5.37,-5.466l-5.37,5.466Zm-15.897,-4.307l0,4.307l4.231,0l-4.231,-4.307Zm54.875,-9.137l-5.873,5.978l5.873,5.978l5.873,-5.978l-5.873,-5.978Zm22.406,0l-5.873,5.978l5.873,5.978l5.873,-5.978l-5.873,-5.978Zm67.216,0l-5.873,5.978l5.873,5.978l5.873,-5.978l-5.873,-5.978Zm-134.432,0l-5.873,5.978l5.873,5.978l5.873,-5.978l-5.873,-5.978Zm156.838,0l-5.873,5.978l5.873,5.978l5.873,-5.978l-5.873,-5.978Zm-134.432,0l-5.873,5.978l5.873,5.978l5.873,-5.978l-5.873,-5.978Zm89.622,0l-5.873,5.978l5.873,5.978l5.873,-5.978l-5.873,-5.978Zm-22.405,0l-5.873,5.978l5.873,5.978l5.873,-5.978l-5.873,-5.978Zm-95.615,-184.873l-4.071,0l0,4.144l4.071,-4.144Zm22.405,0l-10.419,0l5.209,5.303l5.209,-5.303Zm22.405,0l-10.419,0l5.209,5.303l5.209,-5.303Zm22.405,0l-10.419,0l5.209,5.303l5.209,-5.303Zm22.405,0l-10.419,0l5.209,5.303l5.209,-5.303Zm22.405,0l-10.419,0l5.209,5.303l5.209,-5.303Zm22.405,0l-10.419,0l5.209,5.303l5.209,-5.303Zm22.405,0l-10.419,0l5.209,5.303l5.209,-5.303Zm16.059,4.145l0,-4.145l-4.072,0l4.072,4.145Zm-5.254,11.665l5.254,0l0,-5.349l-5.254,5.349Zm-22.405,0l12.783,0l-6.392,-6.506l-6.392,6.506Zm-22.405,0l12.783,0l-6.392,-6.506l-6.392,6.506Zm-22.405,0l12.783,0l-6.392,-6.506l-6.392,6.506Zm-22.405,0l12.783,0l-6.392,-6.506l-6.392,6.506Zm-22.405,0l12.783,0l-6.392,-6.506l-6.392,6.506Zm-22.405,0l12.783,0l-6.392,-6.506l-6.392,6.506Zm-22.405,0l12.783,0l-6.392,-6.506l-6.392,6.506Zm-14.876,-5.348l0,5.348l5.253,0l-5.253,-5.348Zm166.902,-9.137l-5.873,5.978l5.873,5.978l5.873,-5.978l-5.873,-5.978Zm-156.838,0l-5.873,5.978l5.873,5.978l5.873,-5.978l-5.873,-5.978Zm22.405,0l-5.873,5.978l5.873,5.978l5.873,-5.978l-5.873,-5.978Zm67.216,0l-5.873,5.978l5.873,5.978l5.873,-5.978l-5.873,-5.978Zm22.405,0l-5.873,5.978l5.873,5.978l5.873,-5.978l-5.873,-5.978Zm-44.811,0l-5.873,5.978l5.873,5.978l5.873,-5.978l-5.873,-5.978Zm-22.406,0l-5.873,5.978l5.873,5.978l5.873,-5.978l-5.873,-5.978Zm89.622,0l-5.873,5.978l5.873,5.978l5.873,-5.978l-5.873,-5.978Zm16.966,43.876l10.357,9.458l0.048,-25.698l0,-2.61l-29.255,0l10.405,10.405l0,8.444l2.61,0l5.834,-0Zm2.925,-4.454l-0.765,-0.765l-5.386,0l0,-5.386l-3.026,-3.026l11.437,0l0,11.437l-2.261,-2.261Zm-148.883,4.454l5.834,-0l2.61,0l0,-8.444l10.405,-10.405l-29.255,0l0.061,28.18l10.344,-9.33Zm-5.187,-2.193l0,-11.437l11.437,0l-3.026,3.026l0,5.386l-5.386,0l-0.765,0.765l-2.261,2.261Zm14.774,73.072l-0,2.61l16.093,0l-11.379,11.379l9.057,9.057l0,9.506l9.506,0l9.057,9.057l11.379,-11.379l0,16.093l12.81,0l6.721,6.721l6.721,-6.721l12.81,0l0,-16.093l11.379,11.379l9.057,-9.057l9.506,0l0,-9.506l9.057,-9.057l-11.379,-11.379l16.093,0l0,-12.81l6.721,-6.721l-6.721,-6.721l0,-12.81l-16.094,0l9.534,-9.534l1.845,-1.845l-1.845,-1.845l-7.212,-7.212l0,-9.506l-9.506,0l-7.212,-7.212l-1.845,-1.845l-1.845,1.845l-9.534,9.534l0,-16.093l-12.81,0l-6.721,-6.721l-6.721,6.721l-12.81,0l0,16.093l-9.534,-9.534l-1.845,-1.845l-1.845,1.845l-7.212,7.212l-9.506,0l0,9.506l-7.212,7.212l-1.845,1.845l1.845,1.845l9.534,9.534l-16.093,0l0,12.81l-6.721,6.721l6.721,6.721l-0,10.201Z" style="fill:#6a82fb;"/><path id="_311545968" d="M83.745,90.193l0,-6.448l6.448,0l6.896,-6.896l11.379,11.379l0,20.24l-20.24,0l-11.379,-11.379l6.896,-6.896Zm29.943,-20.219l9.752,0l0.765,-0.765l3.795,-3.796l3.795,3.796l0.765,0.765l9.751,0l0,16.093l-14.311,14.312l-14.312,-14.312l0,-16.093Zm33.844,18.254l11.379,-11.379l6.132,6.132l0.763,0.765l6.449,0l0,6.448l0.765,0.765l6.131,6.132l-11.379,11.379l-20.239,0l0,-20.24Zm8.089,39.771l14.311,-14.312l16.094,0l0,9.752l4.56,4.56l-4.56,4.56l0,9.751l-16.094,0l-14.311,-14.311Zm-8.089,19.532l20.239,0l11.38,11.379l-6.897,6.897l0,6.447l-6.447,0l-6.897,6.897l-11.379,-11.38l0,-20.239Zm-33.844,22.4l14.312,-14.311l14.311,14.311l0,16.094l-9.751,0l-4.56,4.56l-4.56,-4.56l-9.752,0l0,-16.094Zm-25.46,-22.4l20.24,0l0,20.239l-11.379,11.38l-6.132,-6.132l-0.765,-0.765l-6.448,0l0,-6.447l-0.765,-0.765l-6.132,-6.132l11.379,-11.379Zm-19.019,-23.327l0.765,-0.765l0,-9.752l16.093,0l14.312,14.312l-14.312,14.311l-16.093,0l0,-9.751l-0.765,-0.765l-3.796,-3.795l3.796,-3.795Zm44.478,-2.134l0,-8.383l8.383,0l5.929,-5.929l5.163,5.164l0.765,0.765l8.383,0l0,8.383l0.765,0.765l5.165,5.164l-5.165,5.163l-0.765,0.765l0,8.383l-8.383,0l-0.765,0.765l-5.163,5.165l-5.164,-5.165l-0.765,-0.765l-8.383,0l0,-8.383l-0.765,-0.765l-5.164,-5.163l5.929,-5.929Zm-20.241,-8.383l15.022,0l0,6.222l-4.4,4.399l-10.622,-10.621Zm20.241,-20.241l10.621,10.622l-4.399,4.4l-6.222,0l0,-15.022Zm28.623,0l0,15.022l-6.222,0l-4.399,-4.4l10.62,-10.622Zm5.221,20.241l15.021,0l-10.622,10.621l-4.399,-4.399l0,-6.222Zm4.399,18.003l10.622,10.62l-15.021,0l0,-6.222l4.399,-4.399Zm-15.841,15.841l6.222,0l0,15.021l-10.62,-10.622l4.399,-4.399Zm-22.401,0l6.222,0l4.399,4.399l-10.621,10.622l0,-15.021Zm-9.619,-15.841l4.4,4.399l0,6.222l-15.022,0l10.622,-10.62Z" style="fill:#48d1cc;"/></g></g></svg>