<?xml version="1.0" encoding="UTF-8" standalone="no"?><!DOCTYPE svg PUBLIC "-//W3C//DTD SVG 1.1//EN" "http://www.w3.org/Graphics/SVG/1.1/DTD/svg11.dtd"><svg width="120px" height="120px" viewBox="0 0 256 256" version="1.1" xmlns="http://www.w3.org/2000/svg" xmlns:xlink="http://www.w3.org/1999/xlink" xml:space="preserve" xmlns:serif="http://www.serif.com/" style="fill-rule:evenodd;clip-rule:evenodd;stroke-linejoin:round;stroke-miterlimit:2;"><rect id="social-media" x="0" y="0" width="256" height="256" style="fill:none;"/><g id="social-media1" serif:id="social-media"><g><path d="M180.083,4.692l-156.25,0c-11.429,0 -20.833,9.405 -20.833,20.833l0,145.833c0,11.429 9.405,20.833 20.833,20.833l156.25,0c11.429,0 20.833,-9.405 20.833,-20.833l0,-145.833c0,-11.429 -9.405,-20.833 -20.833,-20.833Zm-109.375,15.625c2.857,0 5.208,2.351 5.208,5.208c0,2.857 -2.351,5.208 -5.208,5.208c-2.857,0 -5.208,-2.351 -5.208,-5.208c0,-2.857 2.351,-5.208 5.208,-5.208Zm-20.833,0c2.857,0 5.208,2.351 5.208,5.208c0,2.857 -2.351,5.208 -5.208,5.208c-2.857,0 -5.208,-2.351 -5.208,-5.208c0,-2.857 2.351,-5.208 5.208,-5.208Zm-20.833,0c2.857,0 5.208,2.351 5.208,5.208c0,2.857 -2.351,5.208 -5.208,5.208c-2.857,0 -5.208,-2.351 -5.208,-5.208c0,-2.857 2.351,-5.208 5.208,-5.208Zm161.458,151.042c0,5.714 -4.702,10.417 -10.417,10.417l-156.25,0c-5.714,0 -10.417,-4.702 -10.417,-10.417l0,-125l177.083,0l0,125Z" style="fill:#4a5bbd;fill-rule:nonzero;"/><path d="M211.333,77.608l20.833,0c11.429,0 20.833,9.405 20.833,20.833l0,104.167c0,11.429 -9.405,20.833 -20.833,20.833c0,27.76 0.885,28.594 -2.656,30.573c-1.609,0.929 -3.599,0.929 -5.208,0l-50.885,-30.573l-107.917,0c-11.429,0 -20.833,-9.405 -20.833,-20.833l135.417,0c17.143,0 31.25,-14.107 31.25,-31.25l0,-93.75Z" style="fill:#6a82fb;"/><path d="M101.958,171.358c-2.917,0 -2.188,0 -22.969,-20.833l-23.906,0c-8.572,0 -15.625,-7.053 -15.625,-15.625l0,-62.5c0,-8.572 7.053,-15.625 15.625,-15.625l93.75,0c8.572,0 15.625,7.053 15.625,15.625l0,62.5c0,8.572 -7.053,15.625 -15.625,15.625l-23.906,0c-21.042,20.833 -20.052,20.833 -22.969,20.833Zm0,-88.542c-3.433,-3.412 -8.082,-5.328 -12.922,-5.328c-9.886,0 -18.084,7.997 -18.328,17.881c0.028,5.221 2.377,10.168 6.406,13.49l24.844,20.833l24.844,-20.833c3.989,-3.422 6.287,-8.422 6.287,-13.678c0,-9.886 -8.135,-18.021 -18.021,-18.021c-4.96,0 -9.707,2.048 -13.11,5.657Z" style="fill:#48d1cc;"/></g></g></svg>