<?xml version="1.0" encoding="UTF-8" standalone="no"?><!DOCTYPE svg PUBLIC "-//W3C//DTD SVG 1.1//EN" "http://www.w3.org/Graphics/SVG/1.1/DTD/svg11.dtd"><svg width="120px" height="120px" viewBox="0 0 256 256" version="1.1" xmlns="http://www.w3.org/2000/svg" xmlns:xlink="http://www.w3.org/1999/xlink" xml:space="preserve" xmlns:serif="http://www.serif.com/" style="fill-rule:evenodd;clip-rule:evenodd;stroke-linejoin:round;stroke-miterlimit:2;"><rect id="storesweb" x="0" y="0" width="256" height="256" style="fill:none;"/><g id="storesweb1" serif:id="storesweb"><g><path d="M28,58.535l0,165.486c0,4.378 3.55,7.928 7.928,7.928l184.147,0c4.378,0 7.928,-3.55 7.928,-7.928l0,-165.486c0,-4.378 -3.55,-7.928 -7.928,-7.928l-184.147,0c-4.378,0.003 -7.928,3.55 -7.928,7.928Z" style="fill:#4a5bbd;fill-rule:nonzero;"/><path d="M195.597,122.79l-40.867,0c-3.267,0 -5.917,2.65 -5.917,5.917l0,92.519l52.7,0l0,-92.519c0,-3.267 -2.65,-5.917 -5.917,-5.917Z" style="fill:#ccdeff;fill-rule:nonzero;"/><path d="M118.008,191.951l-57.883,0c-3.114,0 -5.639,-2.525 -5.639,-5.639l0,-57.883c0,-3.114 2.525,-5.639 5.639,-5.639l57.886,0c3.114,0 5.639,2.525 5.639,5.639l0,57.886c-0.003,3.114 -2.528,5.636 -5.642,5.636Z" style="fill:#ccdeff;fill-rule:nonzero;"/><path d="M28.556,95.482l-1.111,0c-13.5,0 -24.444,-10.944 -24.444,-24.444l0,-8.483c15.225,-5.114 31.756,-5.6 50,0l0,8.483c0,13.5 -10.944,24.444 -24.444,24.444Z" style="fill:#35a8a4;fill-rule:nonzero;"/><path d="M78.556,95.482l-1.111,0c-13.5,0 -24.444,-10.944 -24.444,-24.444l0,-8.483c17.744,-3.614 34.519,-3.981 50,0l0,8.483c0,13.5 -10.944,24.444 -24.444,24.444Z" style="fill:#a7bade;fill-rule:nonzero;"/><path d="M227.444,95.482l1.111,0c13.5,0 24.444,-10.944 24.444,-24.444l0,-8.483c-15.525,-4.119 -32.367,-3.481 -50,0l0,8.483c0,13.5 10.944,24.444 24.444,24.444Z" style="fill:#35a8a4;fill-rule:nonzero;"/><path d="M177.444,95.482l1.111,0c13.5,0 24.444,-10.944 24.444,-24.444l0,-8.483c-16.667,-7.106 -33.333,-7.106 -50,0l0,8.483c0,13.5 10.944,24.444 24.444,24.444Z" style="fill:#a7bade;fill-rule:nonzero;"/><path d="M103,62.554c2.581,-11.061 2.392,-24.025 0,-38.503l-35.486,-0c-9.533,12.833 -14.369,25.669 -14.514,38.503l50,0Z" style="fill:#ccdeff;fill-rule:nonzero;"/><path d="M3,62.554l31.639,-38.5l32.889,0l-14.528,38.5l-50,0Z" style="fill:#48d1cc;fill-rule:nonzero;"/><path d="M153,62.554c-6.019,-12.469 -5.142,-25.356 0,-38.503l35.486,-0c11.844,14.414 17.275,27.383 14.514,38.503l-50,0Z" style="fill:#ccdeff;fill-rule:nonzero;"/><path d="M253,62.554l-31.639,-38.5l-32.861,0l14.5,38.5l50,0Z" style="fill:#48d1cc;fill-rule:nonzero;"/><path d="M128.556,95.482l-1.111,0c-13.5,0 -24.444,-10.944 -24.444,-24.444l0,-8.483c16.667,-7.106 33.333,-7.106 50,0l0,8.483c0,13.5 -10.944,24.444 -24.444,24.444Z" style="fill:#35a8a4;fill-rule:nonzero;"/><path d="M103,24.054l50,0l0,38.5l-50,0l0,-38.5Z" style="fill:#48d1cc;fill-rule:nonzero;"/></g></g></svg>