<?xml version="1.0" encoding="UTF-8" standalone="no"?><!DOCTYPE svg PUBLIC "-//W3C//DTD SVG 1.1//EN" "http://www.w3.org/Graphics/SVG/1.1/DTD/svg11.dtd"><svg width="120px" height="120px" viewBox="0 0 256 256" version="1.1" xmlns="http://www.w3.org/2000/svg" xmlns:xlink="http://www.w3.org/1999/xlink" xml:space="preserve" xmlns:serif="http://www.serif.com/" style="fill-rule:evenodd;clip-rule:evenodd;stroke-linejoin:round;stroke-miterlimit:2;"><rect id="support" x="0" y="0" width="256" height="256" style="fill:none;"/><g id="support1" serif:id="support"><g><path d="M37.77,210.613l-14.649,0c-11.112,0 -20.121,-9.162 -20.121,-20.462l0,-137.094l250,-0l0,137.094c0,11.3 -9.009,20.462 -20.121,20.462l-101.026,0c0.023,-1.194 0.212,-2.405 0.582,-3.603c1.28,-4.138 4.438,-7.177 8.248,-8.475l2.213,-1.166l1.713,-1.776l1.069,-2.223l0.325,-2.479c-0.072,-2.681 -0.322,-5.342 -0.744,-7.962l-0.778,-2.375l-1.461,-1.986l-2.011,-1.427l-2.388,-0.737c-3.979,-0.574 -7.64,-2.979 -9.661,-6.81c-2.021,-3.832 -1.94,-8.214 -0.164,-11.824l0.739,-2.388l-0.043,-2.465l-0.814,-2.327l-1.52,-1.982l-0.002,-0.002c-1.922,-1.825 -3.977,-3.533 -6.15,-5.105l-2.229,-1.131l-2.437,-0.373l-2.431,0.41l-2.211,1.165l-0.002,0.001c-3.223,2.413 -7.515,3.303 -11.653,2.024c-4.139,-1.281 -7.18,-4.439 -8.475,-8.248l-1.166,-2.212l-1.774,-1.713l-2.223,-1.07l-2.481,-0.326c-2.681,0.072 -5.34,0.322 -7.957,0.742l-2.376,0.777l-1.986,1.46l-1.428,2.008l-0.739,2.385l-0,0.002c-0.575,3.983 -2.98,7.647 -6.811,9.669c-3.832,2.021 -8.212,1.939 -11.824,0.163l-2.387,-0.739l-2.465,0.043l-2.327,0.814l-1.983,1.521c-1.826,1.924 -3.534,3.978 -5.106,6.151l-1.132,2.23l-0.372,2.438l0.411,2.431l1.166,2.211c2.412,3.222 3.3,7.513 2.02,11.653c-1.281,4.139 -4.437,7.18 -8.246,8.477l-2.212,1.166l-1.713,1.775l-1.07,2.222l-0.326,2.478c0.07,2.683 0.321,5.341 0.742,7.96l0.001,0.004l0.778,2.373l1.46,1.985l2.01,1.428l2.388,0.738c1.896,0.273 3.719,0.961 5.327,2.02Zm175.002,-83.652c-0.054,-2.03 -0.245,-4.045 -0.564,-6.028l-0.678,-2.067l-1.276,-1.734l-1.755,-1.246l-2.076,-0.643l-0.002,-0c-2.627,-0.378 -5.045,-1.966 -6.379,-4.496c-1.335,-2.53 -1.281,-5.423 -0.108,-7.806l0.643,-2.079l-0.038,-2.154l-0.711,-2.032l-1.323,-1.725l-0.002,-0.002c-1.455,-1.381 -3.009,-2.674 -4.654,-3.863l-1.942,-0.987l-2.13,-0.326l-2.124,0.359l-1.924,1.014l-0.001,0.001c-2.128,1.592 -4.962,2.182 -7.694,1.336c-2.732,-0.845 -4.74,-2.931 -5.595,-5.445l-0.001,-0.003l-1.015,-1.923l-1.549,-1.496l-1.942,-0.935l-2.161,-0.283c-2.028,0.054 -4.041,0.244 -6.021,0.561l-0.003,0l-2.067,0.677l-1.734,1.275l-1.247,1.754l-0.644,2.075l-0,0.002c-0.38,2.63 -1.968,5.051 -4.498,6.386c-2.53,1.335 -5.423,1.279 -7.806,0.107l-2.079,-0.643l-2.153,0.038l-2.032,0.711l-1.725,1.322l-0.002,0.002c-1.382,1.456 -2.675,3.01 -3.864,4.655l-0.986,1.941l-0.326,2.129l0.358,2.124l1.014,1.925l0.001,0.002c1.592,2.128 2.18,4.96 1.334,7.693c-0.845,2.732 -2.929,4.74 -5.443,5.596l-0.003,0.001l-1.924,1.015l-1.495,1.55l-0.934,1.941l-0.284,2.158c0.053,2.03 0.243,4.044 0.562,6.028l0.677,2.067l1.276,1.734l1.756,1.247l2.079,0.643c2.628,0.378 5.047,1.965 6.381,4.495c1.333,2.532 1.276,5.426 0.105,7.813l-0.641,2.076l0.038,2.152l0.711,2.032l1.324,1.726c1.456,1.382 3.011,2.675 4.656,3.865l1.942,0.986l2.131,0.326l2.125,-0.36l1.925,-1.017c2.125,-1.591 4.959,-2.177 7.691,-1.331c2.731,0.845 4.74,2.93 5.597,5.445l1.015,1.924l1.551,1.496l1.942,0.934l2.158,0.283c2.03,-0.053 4.043,-0.242 6.025,-0.56l0.002,-0l2.066,-0.677l1.734,-1.276l1.247,-1.755l0.643,-2.079c0.378,-2.629 1.967,-5.048 4.498,-6.383c2.529,-1.334 5.422,-1.28 7.804,-0.108l2.076,0.643l2.153,-0.037l2.033,-0.71l1.727,-1.324c1.383,-1.456 2.676,-3.01 3.867,-4.655l0.987,-1.943l0.326,-2.131l-0.36,-2.125l-1.015,-1.925l-0.001,-0.001c-1.592,-2.126 -2.18,-4.96 -1.334,-7.693c0.845,-2.733 2.931,-4.739 5.446,-5.595l1.926,-1.016l1.496,-1.551l0.934,-1.941l0.284,-2.159Z" style="fill:#6a82fb;"/><path d="M253,27.48l0,25.577l-250,0l0,-25.577c0,-11.3 9.009,-20.462 20.121,-20.462l209.759,0c11.112,0 20.121,9.162 20.121,20.462Z" style="fill:#2a2d34;fill-rule:nonzero;"/><path d="M26.013,41.42c-6.241,0 -11.318,-5.164 -11.318,-11.51c0,-6.346 5.077,-11.51 11.318,-11.51c6.241,0 11.318,5.164 11.318,11.51c0,6.346 -5.077,11.51 -11.318,11.51Z" style="fill:url(#_Linear1);fill-rule:nonzero;"/><path d="M58.332,41.548c-6.241,0 -11.318,-5.164 -11.318,-11.51c0,-6.346 5.077,-11.51 11.318,-11.51c6.241,0 11.318,5.164 11.318,11.51c0,6.346 -5.077,11.51 -11.318,11.51Z" style="fill:url(#_Linear2);fill-rule:nonzero;"/><path d="M90.525,41.548c-6.241,0 -11.318,-5.164 -11.318,-11.51c0,-6.346 5.077,-11.51 11.318,-11.51c6.241,0 11.318,5.164 11.318,11.51c0,6.346 -5.077,11.51 -11.318,11.51Z" style="fill:#ccdeff;fill-rule:nonzero;"/><path d="M230.364,41.548l-107.143,0c-6.241,0 -11.318,-5.164 -11.318,-11.51c0,-6.346 5.077,-11.51 11.318,-11.51l107.143,0c6.241,0 11.318,5.164 11.318,11.51c0,6.346 -5.077,11.51 -11.318,11.51Z" style="fill:#ccdeff;fill-rule:nonzero;"/><path d="M142.015,190.998c-0.067,-2.504 -0.301,-4.987 -0.695,-7.433c-0.273,-1.696 -1.563,-2.965 -3.264,-3.209c-5.2,-0.749 -9.984,-3.893 -12.624,-8.899c-2.641,-5.007 -2.536,-10.731 -0.215,-15.448c0.759,-1.542 0.44,-3.323 -0.807,-4.507c-1.795,-1.704 -3.713,-3.298 -5.742,-4.767c-1.392,-1.007 -3.203,-0.993 -4.579,0.035c-4.211,3.152 -9.818,4.313 -15.224,2.641c-5.408,-1.673 -9.382,-5.798 -11.074,-10.775c-0.554,-1.627 -2.04,-2.663 -3.758,-2.618c-2.504,0.067 -4.987,0.301 -7.432,0.693c-1.696,0.272 -2.964,1.562 -3.211,3.262c-0.751,5.202 -3.894,9.987 -8.899,12.629c-5.007,2.641 -10.729,2.535 -15.447,0.214c-1.542,-0.759 -3.324,-0.439 -4.506,0.806c-1.705,1.796 -3.3,3.714 -4.768,5.744c-1.008,1.391 -0.993,3.202 0.036,4.578c3.151,4.21 4.31,9.815 2.637,15.223c-1.673,5.407 -5.796,9.381 -10.772,11.075c-1.627,0.554 -2.662,2.04 -2.617,3.758c0.065,2.505 0.3,4.986 0.692,7.431c0.274,1.696 1.564,2.965 3.264,3.21c5.203,0.748 9.987,3.893 12.627,8.899c2.638,5.007 2.53,10.731 0.212,15.448c-0.757,1.543 -0.438,3.323 0.808,4.505c1.797,1.705 3.714,3.3 5.743,4.768c1.392,1.008 3.203,0.993 4.58,-0.036c4.207,-3.15 9.814,-4.308 15.223,-2.636c5.404,1.673 9.378,5.796 11.074,10.773c0.554,1.626 2.041,2.66 3.758,2.616c2.504,-0.066 4.987,-0.299 7.431,-0.691c1.697,-0.273 2.967,-1.564 3.211,-3.265c0.748,-5.203 3.894,-9.987 8.901,-12.628c5.005,-2.641 10.73,-2.535 15.444,-0.215c1.541,0.759 3.321,0.441 4.505,-0.804c1.706,-1.796 3.302,-3.712 4.772,-5.742c1.008,-1.393 0.993,-3.204 -0.037,-4.581c-3.152,-4.208 -4.312,-9.816 -2.639,-15.223c1.673,-5.407 5.797,-9.379 10.775,-11.073c1.627,-0.553 2.661,-2.041 2.616,-3.759Zm-51.004,-16.198c-9.777,-3.025 -20.152,2.447 -23.176,12.224c-3.025,9.777 2.447,20.151 12.224,23.176c9.777,3.025 20.151,-2.446 23.176,-12.223c3.025,-9.778 -2.446,-20.151 -12.224,-23.177Zm79.431,-57.776c-6.165,-1.907 -12.7,1.54 -14.608,7.704c-1.907,6.164 1.54,12.7 7.705,14.607c6.165,1.907 12.7,-1.539 14.607,-7.704c1.907,-6.165 -1.539,-12.7 -7.704,-14.607Zm38.341,10.044c-0.049,-1.852 -0.223,-3.69 -0.514,-5.5c-0.203,-1.255 -1.157,-2.193 -2.415,-2.375c-3.848,-0.553 -7.388,-2.88 -9.341,-6.585c-1.954,-3.704 -1.876,-7.94 -0.159,-11.429c0.562,-1.142 0.325,-2.459 -0.597,-3.335c-1.328,-1.261 -2.747,-2.441 -4.249,-3.527c-1.029,-0.747 -2.37,-0.735 -3.387,0.026c-3.115,2.331 -7.265,3.192 -11.265,1.954c-4.001,-1.237 -6.941,-4.29 -8.194,-7.972c-0.411,-1.204 -1.511,-1.971 -2.782,-1.936c-1.852,0.049 -3.69,0.223 -5.499,0.512c-1.255,0.202 -2.193,1.156 -2.376,2.414c-0.557,3.849 -2.882,7.391 -6.585,9.344c-3.704,1.954 -7.94,1.875 -11.43,0.158c-1.141,-0.561 -2.459,-0.324 -3.334,0.597c-1.261,1.329 -2.442,2.748 -3.527,4.25c-0.746,1.029 -0.735,2.37 0.026,3.388c2.331,3.115 3.19,7.262 1.951,11.264c-1.237,4.001 -4.288,6.941 -7.971,8.194c-1.203,0.41 -1.969,1.51 -1.936,2.782c0.048,1.852 0.222,3.689 0.513,5.498c0.202,1.255 1.157,2.194 2.415,2.375c3.85,0.554 7.39,2.88 9.344,6.584c1.952,3.705 1.871,7.94 0.157,11.432c-0.56,1.14 -0.324,2.458 0.597,3.333c1.329,1.262 2.748,2.441 4.25,3.528c1.03,0.746 2.37,0.736 3.389,-0.027c3.113,-2.33 7.263,-3.188 11.264,-1.949c3.998,1.237 6.94,4.288 8.195,7.971c0.409,1.203 1.51,1.969 2.781,1.934c1.853,-0.048 3.69,-0.22 5.499,-0.511c1.255,-0.202 2.195,-1.157 2.376,-2.415c0.554,-3.85 2.881,-7.39 6.586,-9.344c3.704,-1.954 7.94,-1.875 11.428,-0.159c1.14,0.561 2.458,0.327 3.333,-0.595c1.263,-1.329 2.443,-2.747 3.53,-4.249c0.747,-1.03 0.736,-2.37 -0.027,-3.389c-2.332,-3.114 -3.191,-7.263 -1.953,-11.264c1.237,-4.002 4.29,-6.94 7.973,-8.193c1.204,-0.41 1.97,-1.511 1.936,-2.783Zm-36.032,-17.508c10.284,3.182 16.04,14.096 12.859,24.38c-3.182,10.285 -14.096,16.041 -24.38,12.859c-10.284,-3.182 -16.041,-14.096 -12.859,-24.38c3.181,-10.284 14.096,-16.04 24.38,-12.859Zm-79.431,57.776c13.899,4.3 21.679,19.05 17.378,32.949c-4.299,13.899 -19.05,21.678 -32.949,17.378c-13.898,-4.3 -21.678,-19.05 -17.378,-32.948c4.3,-13.899 19.051,-21.679 32.949,-17.379Z" style="fill:#4a5bbd;"/></g></g><defs><linearGradient id="_Linear1" x1="0" y1="0" x2="1" y2="0" gradientUnits="userSpaceOnUse" gradientTransform="matrix(23.154576,1.579831,-1.579831,23.154576,16.312076,21.178787)"><stop offset="0" style="stop-color:#ff6b6b;stop-opacity:1"/><stop offset="1" style="stop-color:#ff6b6b;stop-opacity:1"/></linearGradient><linearGradient id="_Linear2" x1="0" y1="0" x2="1" y2="0" gradientUnits="userSpaceOnUse" gradientTransform="matrix(0,23.019322,-23.019322,0,58.332203,18.528321)"><stop offset="0" style="stop-color:#48d1cc;stop-opacity:1"/><stop offset="1" style="stop-color:#48d1cc;stop-opacity:1"/></linearGradient></defs></svg>