<?xml version="1.0" encoding="UTF-8" standalone="no"?><!DOCTYPE svg PUBLIC "-//W3C//DTD SVG 1.1//EN" "http://www.w3.org/Graphics/SVG/1.1/DTD/svg11.dtd"><svg width="120px" height="120px" viewBox="0 0 256 256" version="1.1" xmlns="http://www.w3.org/2000/svg" xmlns:xlink="http://www.w3.org/1999/xlink" xml:space="preserve" xmlns:serif="http://www.serif.com/" style="fill-rule:evenodd;clip-rule:evenodd;stroke-linejoin:round;stroke-miterlimit:2;"><rect id="videditing" x="0" y="0" width="256" height="256" style="fill:none;"/><g id="videditing1" serif:id="videditing"><g><path d="M128,253c69.035,0 125,-55.965 125,-125c0,-69.036 -55.965,-125 -125,-125c-69.036,-0 -125,55.964 -125,125c0,69.035 55.964,125 125,125Z" style="fill:#6a82fb;fill-rule:nonzero;"/><path d="M128.001,62.618c36.132,0 65.381,29.297 65.381,65.38c0,36.085 -29.249,65.381 -65.381,65.381c-36.133,0 -65.381,-29.296 -65.381,-65.381c0,-36.083 29.248,-65.38 65.381,-65.38Z" style="fill:url(#_Linear1);fill-rule:nonzero;"/><path d="M127.999,46.652c-44.922,0 -81.348,36.426 -81.348,81.348c0,44.922 36.426,81.347 81.348,81.347c44.922,0 81.347,-36.425 81.347,-81.347c0,-44.922 -36.425,-81.348 -81.347,-81.348Zm0,146.045c-35.742,0 -64.697,-28.954 -64.697,-64.697c0,-35.742 28.955,-64.697 64.697,-64.697c35.743,0 64.697,28.955 64.697,64.697c0,35.743 -28.954,64.697 -64.697,64.697Z" style="fill:#4a5bbd;fill-rule:nonzero;"/><path d="M152.931,122.566c4.403,2.934 4.403,9.403 0,12.337l-29.403,19.588c-4.926,3.281 -11.521,-0.25 -11.521,-6.169l0,-39.175c0,-5.919 6.594,-9.45 11.521,-6.169l29.403,19.588Z" style="fill:#ccdeff;fill-rule:nonzero;"/></g></g><defs><linearGradient id="_Linear1" x1="0" y1="0" x2="1" y2="0" gradientUnits="userSpaceOnUse" gradientTransform="matrix(0,130.761176,-130.761176,0,128.001471,62.618456)"><stop offset="0" style="stop-color:#48d1cc;stop-opacity:1"/><stop offset="1" style="stop-color:#35a5a1;stop-opacity:1"/></linearGradient></defs></svg>