<?xml version="1.0" encoding="UTF-8" standalone="no"?><!DOCTYPE svg PUBLIC "-//W3C//DTD SVG 1.1//EN" "http://www.w3.org/Graphics/SVG/1.1/DTD/svg11.dtd"><svg width="120px" height="120px" viewBox="0 0 256 256" version="1.1" xmlns="http://www.w3.org/2000/svg" xmlns:xlink="http://www.w3.org/1999/xlink" xml:space="preserve" xmlns:serif="http://www.serif.com/" style="fill-rule:evenodd;clip-rule:evenodd;stroke-linejoin:round;stroke-miterlimit:2;"><rect id="voiceover" x="0" y="0" width="256" height="256" style="fill:none;"/><g id="voiceover1" serif:id="voiceover"><g><path d="M134.704,219.853l0,19.601l2.676,0c12.917,-0.007 25.834,-0.021 38.752,-0.012c0.992,0.001 2.01,0.039 2.971,0.262c3.259,0.756 5.38,3.715 5.111,6.992c-0.271,3.281 -2.845,5.857 -6.142,6.123c-0.611,0.049 -1.229,0.03 -1.843,0.03c-18.376,0.018 -36.753,0.024 -55.129,0.054c-13.685,0.021 -27.37,0.073 -41.056,0.098c-0.995,0.002 -2.004,-0.029 -2.984,-0.184c-3.175,-0.505 -5.507,-3.234 -5.551,-6.409c-0.046,-3.311 2.247,-6.131 5.508,-6.68c0.978,-0.166 1.987,-0.202 2.982,-0.204c12.84,-0.021 25.68,-0.023 38.521,-0.032l2.22,0c0.5,-1.741 0.577,-16.807 0.109,-19.67c-1.907,-0.268 -3.872,-0.521 -5.83,-0.822c-36.472,-5.614 -65.109,-33.551 -71.711,-69.982c-0.879,-4.85 -1.285,-9.752 -1.235,-14.685c0.041,-3.99 2.752,-6.842 6.521,-6.9c3.866,-0.059 6.822,2.777 6.869,6.827c0.069,5.946 0.703,11.809 2.227,17.558c5.473,20.644 17.595,36.161 36.336,46.32c25.063,13.584 56.145,10.764 78.57,-6.889c13.682,-10.772 22.4,-24.71 26.286,-41.653c1.083,-4.723 1.634,-9.54 1.642,-14.403c0.002,-0.841 0.012,-1.704 0.195,-2.519c0.75,-3.353 3.71,-5.48 7.147,-5.208c3.429,0.271 5.941,2.841 6.04,6.394c0.163,5.864 -0.373,11.689 -1.652,17.406c-6.202,27.728 -22.131,47.888 -47.55,60.485c-8.535,4.23 -17.648,6.693 -27.138,7.7c-0.912,0.096 -1.816,0.254 -2.86,0.401Z" style="fill:#ccdeff;fill-rule:nonzero;"/><path d="M174.453,145.824c-6.271,21.814 -29.675,35.562 -53.4,32.714c-19.306,-2.318 -35.433,-16.749 -40.752,-35.092c1.885,0.026 3.774,0.062 5.66,0.028c4.891,-0.084 7.542,-2.708 7.729,-7.654c0.063,-1.687 -0.039,-3.382 0.076,-5.064c0.143,-2.105 1.363,-3.314 3.099,-3.261c1.736,0.05 2.926,1.279 3.003,3.392c0.099,2.741 0.011,5.489 0.054,8.232c0.039,2.422 -0.055,4.872 0.263,7.264c0.502,3.77 3.538,6.04 7.393,5.849c3.665,-0.179 6.452,-2.998 6.628,-6.755c0.059,-1.263 0.016,-2.531 0.016,-3.798c0.004,-6.544 -0.026,-13.09 0.029,-19.633c0.02,-2.449 1.336,-3.966 3.183,-3.961c1.809,0.005 3.067,1.576 3.171,3.994c0.032,0.739 0.006,1.479 0.006,2.216c0.002,10.132 -0.023,20.265 0.02,30.398c0.016,4.099 2.895,7.159 6.743,7.356c3.831,0.195 7.064,-2.626 7.538,-6.636c0.11,-0.939 0.053,-1.898 0.053,-2.847c0.004,-10.766 0,-21.532 0.006,-32.297c0,-0.948 -0.045,-1.913 0.093,-2.845c0.218,-1.475 1.366,-2.466 2.781,-2.574c1.413,-0.107 2.728,0.706 3.098,2.173c0.278,1.111 0.341,2.296 0.35,3.449c0.037,4.961 0.018,9.921 0.018,14.883c0.002,4.644 -0.119,9.29 0.035,13.93c0.13,3.876 3.237,6.644 7.069,6.65c3.779,0.006 6.785,-2.836 7.006,-6.717c0.098,-1.684 0.034,-3.377 0.037,-5.066c0.007,-3.588 -0.051,-7.178 0.04,-10.765c0.059,-2.324 1.27,-3.557 3.175,-3.542c1.89,0.015 3.034,1.276 3.119,3.581c0.066,1.791 -0.049,3.59 0.035,5.38c0.168,3.623 2.686,6.563 6.188,6.927c2.127,0.223 4.288,0.113 6.438,0.09Z" style="fill:#4a5bbd;fill-rule:nonzero;"/><path d="M178.025,93.869c-0.762,16.306 0.227,32.538 -2.649,48.051c-0.006,0.03 -0.012,0.063 -0.018,0.094c-1.962,-0.185 -3.956,-0.071 -5.927,-0.217c-2.582,-0.19 -3.342,-1.016 -3.46,-3.56c-0.065,-1.369 0.018,-2.746 -0.049,-4.116c-0.05,-1.045 -0.107,-2.118 -0.378,-3.121c-0.944,-3.5 -4.091,-5.635 -7.632,-5.284c-3.515,0.35 -6.215,3.103 -6.308,6.766c-0.126,4.852 -0.023,9.709 -0.06,14.565c-0.007,0.934 -0.061,1.918 -0.358,2.789c-0.511,1.501 -1.673,2.083 -3.239,1.916c-1.456,-0.156 -2.326,-1.005 -2.589,-2.374c-0.178,-0.919 -0.127,-1.888 -0.127,-2.836c-0.007,-8.866 -0.004,-17.732 -0.006,-26.599c-0.001,-0.948 0.049,-1.908 -0.059,-2.845c-0.475,-4.115 -4.333,-6.903 -8.402,-6.114c-3.69,0.713 -5.885,3.395 -5.921,7.456c-0.056,5.91 -0.015,11.821 -0.015,17.732l-0.01,0c0,5.593 0.001,11.188 0,16.783c-0.002,0.738 0.054,1.485 -0.041,2.212c-0.221,1.671 -1.378,2.75 -2.904,2.811c-1.393,0.056 -2.647,-0.791 -3.016,-2.285c-0.25,-1.005 -0.276,-2.083 -0.278,-3.13c-0.021,-9.604 -0.009,-19.209 -0.021,-28.814c-0.001,-1.159 0.004,-2.327 -0.135,-3.476c-0.404,-3.399 -2.893,-5.786 -6.241,-6.08c-3.432,-0.3 -6.461,1.496 -7.445,4.63c-0.369,1.176 -0.384,2.496 -0.39,3.75c-0.035,6.754 -0.007,13.509 -0.029,20.265c-0.002,1.047 -0.017,2.125 -0.26,3.133c-0.349,1.44 -1.709,2.363 -3.032,2.292c-1.372,-0.076 -2.635,-1.096 -2.899,-2.513c-0.155,-0.819 -0.099,-1.681 -0.102,-2.525c-0.016,-4.221 0.088,-8.447 -0.057,-12.664c-0.14,-4.133 -3.136,-6.997 -7.056,-7.039c-4.104,-0.045 -7.077,2.847 -7.266,7.143c-0.079,1.791 0.039,3.592 -0.049,5.381c-0.115,2.349 -1.186,3.401 -3.567,3.507c-1.896,0.083 -3.801,-0.028 -5.697,0.061c-0.36,0.018 -0.673,0.067 -0.94,0.145c-0.562,-2.739 -0.884,-5.55 -0.944,-8.406c-0.256,-12.367 -0.045,-24.742 -0.045,-37.487l99.623,0Z" style="fill:#6a82fb;fill-rule:nonzero;"/><path d="M127.15,62.476c-4.43,0.73 -7.372,3.187 -7.237,8.442c0.127,4.945 3.021,7.665 7.648,7.688c4.888,0.023 8.165,-2.719 8.152,-7.956c-0.012,-5.168 -3.091,-7.677 -8.563,-8.174Zm0.636,-40.771c-4.83,0.253 -7.649,2.689 -7.844,7.51c-0.206,5.071 2.37,8.315 7.516,8.455c4.99,0.136 8.171,-2.611 8.238,-7.786c0.066,-5.118 -2.902,-7.754 -7.91,-8.18Zm20.344,20.383c-5.122,0.552 -8.044,3.385 -7.867,8.424c0.18,5.1 3.518,7.927 8.471,7.662c4.59,-0.246 7.522,-3.102 7.447,-7.987c-0.078,-5.158 -3.058,-7.712 -8.05,-8.098Zm-32.738,8.404c-0.316,-5.01 -2.708,-8.158 -7.934,-8.276c-4.825,-0.109 -7.812,2.592 -8.133,7.303c-0.339,4.997 2.343,8.366 7.46,8.622c5,0.25 7.995,-2.516 8.607,-7.649Zm61.815,37.738l-98.873,0c1.191,-17.992 -3.159,-36.144 3.432,-53.617c7.872,-20.868 30.47,-34.145 51.982,-31.207c23.372,3.193 41.821,22.053 43.314,45.399c0.818,12.815 0.146,25.725 0.146,39.424Z" style="fill:#48d1cc;fill-rule:nonzero;"/></g></g></svg>