<?xml version="1.0" encoding="UTF-8" standalone="no"?><!DOCTYPE svg PUBLIC "-//W3C//DTD SVG 1.1//EN" "http://www.w3.org/Graphics/SVG/1.1/DTD/svg11.dtd"><svg width="120px" height="120px" viewBox="0 0 256 256" version="1.1" xmlns="http://www.w3.org/2000/svg" xmlns:xlink="http://www.w3.org/1999/xlink" xml:space="preserve" xmlns:serif="http://www.serif.com/" style="fill-rule:evenodd;clip-rule:evenodd;stroke-linejoin:round;stroke-miterlimit:2;"><rect id="webdesign" x="0" y="0" width="256" height="256" style="fill:none;"/><g id="webdesign1" serif:id="webdesign"><g><path d="M62.127,96.245l0,21.083l187.692,-0.117l0,-20.966c0,-18.837 -15.27,-34.107 -34.107,-34.107l-119.479,0c-18.836,0 -34.106,15.27 -34.106,34.107Z" style="fill:#3f51b5;fill-rule:nonzero;"/><path d="M53.67,209.889l0,-110.329c0,-25.08 20.304,-45.425 45.384,-45.476l122.094,-0.246l0,-16.732c0,-18.864 -15.312,-34.145 -34.176,-34.107l-148.354,0.299c-18.81,0.038 -34.038,15.297 -34.038,34.107l0,138.377c0,18.837 15.27,34.107 34.107,34.107l14.983,0Z" style="fill:#48d1cc;"/><path d="M251.419,218.893l0,-90.801l-190.099,0.241l-0,90.559c0,18.837 15.27,34.107 34.107,34.107l121.885,0c18.835,0 34.107,-15.27 34.107,-34.107Z" style="fill:#6a82fb;fill-rule:nonzero;"/><path d="M118.992,100.08l-29.838,0c-1.322,0.123 -2.654,-0.033 -3.912,-0.457c-1.259,-0.424 -2.415,-1.106 -3.396,-2.004c-0.98,-0.897 -1.764,-1.99 -2.299,-3.209c-0.536,-1.218 -0.813,-2.535 -0.813,-3.867c0,-1.332 0.277,-2.649 0.813,-3.867c0.536,-1.218 1.319,-2.311 2.299,-3.209c0.981,-0.897 2.137,-1.58 3.396,-2.004c1.257,-0.424 2.59,-0.58 3.912,-0.458l29.838,0c1.322,-0.122 2.654,0.034 3.912,0.458c1.259,0.424 2.415,1.106 3.395,2.004c0.98,0.897 1.764,1.99 2.299,3.209c0.537,1.218 0.814,2.535 0.814,3.867c0,1.332 -0.277,2.649 -0.814,3.867c-0.535,1.218 -1.319,2.311 -2.299,3.209c-0.98,0.897 -2.136,1.58 -3.395,2.004c-1.257,0.424 -2.59,0.58 -3.912,0.457Zm74.755,0c-1.9,0 -3.759,-0.571 -5.334,-1.639c-1.575,-1.067 -2.798,-2.583 -3.51,-4.351c-0.712,-1.769 -0.881,-3.711 -0.487,-5.577c0.396,-1.866 1.337,-3.571 2.704,-4.897c1.368,-1.326 3.098,-2.212 4.97,-2.544c1.872,-0.332 3.801,-0.096 5.538,0.678c1.739,0.775 3.206,2.052 4.215,3.669c1.01,1.617 1.514,3.499 1.451,5.406c-0.084,2.484 -1.126,4.838 -2.908,6.565c-1.781,1.727 -4.161,2.692 -6.638,2.69Zm29.838,0c-1.32,0.123 -2.653,-0.033 -3.912,-0.457c-1.257,-0.424 -2.415,-1.106 -3.395,-2.004c-0.98,-0.897 -1.763,-1.99 -2.299,-3.209c-0.537,-1.218 -0.812,-2.535 -0.812,-3.867c0,-1.332 0.276,-2.649 0.812,-3.867c0.537,-1.218 1.319,-2.311 2.299,-3.209c0.98,-0.897 2.137,-1.58 3.395,-2.004c1.259,-0.424 2.591,-0.58 3.912,-0.458c2.371,0.219 4.574,1.318 6.178,3.082c1.604,1.765 2.494,4.067 2.494,6.455c0,2.388 -0.89,4.69 -2.494,6.455c-1.604,1.764 -3.807,2.863 -6.178,3.082Z" style="fill:#ccdeff;"/></g></g></svg>