<svg viewBox="0 0 147.979 70" xmlns="http://www.w3.org/2000/svg" xml:space="preserve" style="fill-rule:evenodd;clip-rule:evenodd;stroke-linejoin:round;stroke-miterlimit:2" width="147.979" height="70"><path d="M14.234 0h2.601c0.82 0.444 0.909 0.231 1.701 0.709 2.806 1.696 4.484 5.617 2.311 14.384 -1.252 5.053 -6.998 19.043 -7.581 22.4 -0.008 0.047 0.236 0.297 0.436 -0.404 0.423 -1.482 3.082 -7.458 3.816 -9.001 1.338 -2.815 6.45 -14.18 10.208 -17.699 2.242 -2.1 3.658 0.169 3.808 0.677 0.711 2.396 -4.602 16.893 -4.967 18.914 -0.005 0.031 0.166 0.39 0.357 -0.159 1.904 -5.492 7.523 -15.746 11.358 -20.89 5.277 -7.078 6.773 -6.835 7.992 -5.773 2.011 1.751 1.207 2.896 0.729 3.979 -12.553 28.451 -9.571 39.011 -9.294 40.323 0.17 0.804 0.082 1.284 0.834 0.947 10.676 -4.78 21.856 -2.222 24.631 2.134 3.552 5.577 -4.741 10.919 -11.512 10.734 -11.695 -0.32 -14.92 -7.679 -15.3 -7.774 -0.592 -0.148 -9.668 9.631 -1.625 15.815 1.398 1.075 -5.702 1.794 -6.642 -6.089 -0.422 -3.537 1.481 -8.692 6.465 -12.351 0.726 -0.533 -0.12 -0.715 -0.906 -5.29 -2.315 -13.482 7.144 -35.452 8.413 -37.872 0.239 -0.457 -0.136 -0.341 -0.214 -0.249 -1.04 1.231 -3.007 4.056 -3.257 4.417C33.132 19.731 27.905 30.891 25.605 38.79c-0.1 0.344 -0.152 0.948 -0.977 1.101 -0.657 0.122 -2.187 -0.375 -2.671 -2.118 -1.429 -5.146 5.324 -22.099 5.411 -23.814l-0.135 -0.032c-4.508 6.037 -10.064 19.515 -10.791 21.28 -3.33 8.078 -2.928 8.956 -4.368 8.737 -5.266 -0.8 -1.948 -10.944 -0.244 -15.816C14.8 19.635 22.447 2.398 15.535 1.806 7.897 1.152 -0.943 20.12 4.729 25.764c0.993 0.988 2.451 1.194 1.429 1.654C3.386 28.667 0.419 25.464 0.161 22.339c-0.02 -0.238 -0.077 -0.213 -0.161 -0.444v-2.89c0.014 -0.069 0.131 -0.084 0.145 -0.153 0.025 -0.124 -0.106 -0.132 0.141 -1.571C1.557 9.886 7.424 1.558 13.793 0.182c0.241 -0.052 0.216 -0.088 0.441 -0.181Zm27.435 55.44c9.509 9.165 26.462 0.437 18.42 -5.286 -5.01 -3.565 -15.181 -2.998 -20.836 0.959 -0.429 0.3 -0.046 0.927 0.484 1.809 0.972 1.618 1.556 2.107 1.932 2.518ZM147.979 28.974v2.89c-0.014 0.069 -0.131 0.085 -0.145 0.153 -0.021 0.104 0.117 0.428 -0.318 2.313 -2.233 9.666 -12.519 16.597 -20.391 12.37 -3.468 -1.862 -4.772 -6.474 -4.102 -9.489 0.056 -0.252 -0.186 -0.343 -0.365 0.026 -1.916 3.958 -5.343 6.762 -7.534 4.003 -0.917 -1.156 -1.06 -3.373 -0.783 -4.615 0.109 -0.488 0.268 -0.576 0.031 -0.658 -0.069 -0.024 -2.879 2.921 -6.062 3.253 -0.497 0.052 -0.852 -0.185 -0.697 0.297 0.072 0.224 1.035 2.066 1.358 6.367 0.509 6.777 -1.634 19.477 -6.737 17.791 -4.102 -1.355 -3.171 -14.463 0.258 -25.888 0.049 -0.162 -0.162 -0.306 -0.346 0.037 -0.872 1.621 -3.107 4.687 -5.119 5.421 -2.95 1.076 -4.845 -2.193 -4.085 -6.032 0.057 -0.285 -0.065 -0.222 -0.103 -0.221 -0.368 0.012 0.158 0.53 -2.66 3.765 -2.338 2.684 -5.554 1.832 -5.941 -1.824 -0.13 -1.226 -0.481 0.078 -1.137 1.124 -0.301 0.481 -4.399 7.777 -7.998 5.776 -0.779 -0.433 -3.371 -1.874 -1.261 -11.066 0.002 -0.009 0.472 -1.362 -0.063 -0.877 -2.364 2.143 -5.275 2.989 -5.213 3.464 0.013 0.098 0.617 2.408 -0.09 4.926 -2.099 7.474 -12.412 5.295 -9.097 -0.706 1.401 -2.537 5.001 -3.917 4.954 -4.362 -0.055 -0.532 -1.041 -3.368 -1.193 -3.924 -0.012 -0.043 -0.191 -0.701 -0.355 -0.425 -3.017 5.074 -8.087 13.675 -11.528 9.529 -1.486 -1.79 -0.866 -4.904 -0.782 -5.327 0.301 -1.511 -0.354 0.263 -1.185 1.548 -3.671 5.679 -8.426 4.642 -7.777 -1.698 0.507 -4.956 3.041 -10.713 3.673 -11.081 0.546 -0.318 4.281 -0.367 2.955 2.823 -0.7 1.685 -2.705 6.152 -3.134 9.416 -0.223 1.697 0.352 2.616 1.585 1.429 3.738 -3.599 6.811 -13.333 7.824 -13.702 1.45 -0.529 3.669 0.596 2.965 2.423 -0.006 0.016 -5.538 12.727 -2.972 12.922 1.347 0.103 5.589 -6.589 5.991 -7.223 2.021 -3.187 2.065 -3.183 2.067 -3.509 0.004 -0.765 -0.678 -4.253 2.103 -6.889 2.82 -2.673 7.051 -0.128 2.96 4.55 -1.084 1.24 -1.561 1.182 -1.208 2.468 0.305 1.114 0.836 2.33 1.632 4.656 0.194 0.566 1.013 -0.015 2.078 -0.572 1.66 -0.868 4.54 -2.953 4.902 -4.068 1.837 -5.666 1.635 -5.723 3.679 -10.668 0.243 -0.588 0.355 -0.604 0.223 -0.749 -0.125 -0.136 -22.142 3.911 -22.039 -4.766 0.013 -1.125 1.278 -2.669 1.485 -1.587 0.095 0.494 0.275 7.056 16.934 4.988 0.358 -0.044 4.154 -0.516 4.452 -0.708 0.384 -0.247 2.669 -7.018 3.784 -7.344 0.206 -0.06 1.295 -0.378 2.56 0.8 0.726 0.676 0.741 0.922 -0.877 4.543 -0.452 1.013 -0.457 1.004 -0.451 1.033 0.065 0.375 3.397 -0.641 8.748 -1.01 10.028 -0.69 9.624 5.176 7.364 5.909 -1.041 0.338 0.055 -1.469 -2.623 -2.662 -1.3 -0.579 -4.38 -1.477 -13.839 -0.032 -0.777 0.119 -0.703 0.327 -1.641 2.694 -1.768 4.462 -4.785 13.031 -5.603 17.646 -0.146 0.824 -1.207 6.707 1.559 4.572 2.985 -2.305 7.135 -12.124 8.753 -13.93 0.466 -0.52 2.409 -2.999 5.604 -3.456 5.006 -0.717 5.437 4.656 3.318 3.567 -0.162 -0.083 -0.749 -3.248 -4.028 -0.411 -3.78 3.272 -5.881 12.324 -3.497 10.799 1.259 -0.805 3.925 -5.229 5.611 -8.67 0.089 -0.181 0.507 -1.811 2.606 -0.93 2.226 0.934 0.965 2.64 0.018 5.712 -1.372 4.451 -0.752 5.962 0.824 4.845 1.538 -1.091 5.84 -7.637 6.52 -9.623 0.032 -0.092 3.846 -12.254 8.548 -17.344 4.32 -4.677 8.578 -2.694 6.453 3.317 -3.25 9.19 -11.208 15.474 -11.443 15.945 -0.1 0.201 -1.356 4.149 -1.286 4.289 0.172 0.347 3.976 0.982 8.242 -4.111 1.397 -1.668 2.936 -6.427 8.175 -7.377 4.503 -0.816 5.661 4.243 3.446 3.607 -0.494 -0.142 -0.624 -3.105 -3.849 -0.718 -3.326 2.462 -6.269 11.467 -4.092 11.18 1.707 -0.225 6.065 -9.379 6.538 -9.747 0.731 -0.568 3.89 -0.02 3.096 2.401 -0.27 0.824 -4.428 10.028 1.22 12.859 2.355 1.18 6.738 1.028 10.686 -2.869 6.06 -5.98 6.495 -16.218 1.997 -18.3 -0.471 -0.218 -0.609 -0.473 -0.125 -0.646 3.591 -1.279 5.609 2.805 5.835 4.917 0.025 0.238 0.081 0.212 0.168 0.443Zm-81.965 -2.449c-0.189 1.098 -0.136 1.146 -0.044 1.144 0.32 -0.009 2.671 -3.697 1.304 -3.307 -0.713 0.203 -1.206 1.971 -1.26 2.164Zm40.478 29.34c0.672 -2.962 0.89 -5.411 0.864 -8.106 -0.006 -0.619 -0.045 -4.718 -1.256 -7.635 -0.255 -0.614 -0.508 0.782 -0.921 2.445 -2.34 9.408 -3.051 17.211 -1.926 18.775 0.297 0.413 1.709 0.93 3.239 -5.479Zm-41.894 -14.619c0.107 -1.256 0.154 -1.248 0.113 -1.88 -0.013 -0.206 -0.266 -0.371 -2.267 1.243 -3.533 2.851 -1.549 5.252 0.317 3.929 1.467 -1.041 1.788 -3.118 1.837 -3.292m46.485 -13.552c0.391 -0.483 0.394 -0.464 0.781 -0.938 3.711 -4.555 6.273 -9.984 6.36 -12.237 0.086 -2.233 -2.589 -1.177 -6.074 6.768 -2.331 5.314 -2.488 6.579 -3.165 8.261 -0.51 1.268 1.428 -1.092 2.099 -1.853" style="fill:#6A82FB;"/></svg>