<svg viewBox="0 0 1280 1600" xmlns="http://www.w3.org/2000/svg" xml:space="preserve" style="fill-rule:evenodd;clip-rule:evenodd;stroke-linejoin:round;stroke-miterlimit:2">
  <path style="fill:none" d="M0 0h1280v1600H0z"/>
  <path style="fill:#CCDEFF20;fill-rule:nonzero" d="M1061.125 73.402h76.127v76.128h-76.127zM134.957 85.08 75.026 188.884h119.862zm991.169 1404.785c0-23.175 18.79-41.965 41.969-41.965 23.175 0 41.965 18.79 41.965 41.965 0 23.179-18.79 41.969-41.965 41.969-23.179 0-41.969-18.79-41.969-41.969"/>
  <path d="m61.97 604.207-9.68-9.68 25.527-25.524 9.68 9.68zm47.082-47.083-9.68-9.68 25.527-25.524 9.68 9.68zm15.848 47.083-25.527-25.524 9.68-9.68 25.527 25.524zm-47.083-47.083L52.29 531.6l9.68-9.68 25.527 25.524zm1069.114 404.249-9.68-9.68 25.529-25.529 9.68 9.68zm47.083-47.083-9.68-9.68 25.529-25.529 9.68 9.68zm15.849 47.083-25.529-25.529 9.68-9.68 25.529 25.529zm-47.083-47.083-25.529-25.529 9.68-9.68 25.529 25.529z" style="fill:#48D1CC;fill-rule:nonzero"/>
  <path d="m561.38 127.051-9.68-9.68 25.524-25.526 9.68 9.68zm47.083-47.082-9.68-9.68 25.524-25.527 9.68 9.679-25.524 25.527Zm15.844 47.082-25.524-25.526 9.68-9.68 25.524 25.526zm-47.083-47.082L551.7 54.442l9.68-9.68 25.524 25.527z" style="fill:#CCDEFF99"/>
  <path style="fill:#48D1CC;fill-rule:nonzero" d="M79.745 1467.535h13.689v89.295H79.745z"/>
  <path style="fill:#48D1CC;fill-rule:nonzero" d="M41.944 1505.336h89.292v13.689H41.944zM1094.907 116.189h62.437V53.751h-62.437zm69.282 13.689h-76.127a6.845 6.845 0 0 1-6.845-6.845V46.905a6.845 6.845 0 0 1 6.845-6.845h76.127a6.845 6.845 0 0 1 6.845 6.845v76.128a6.845 6.845 0 0 1-6.845 6.845m-1050.37 25.665h96.151l-48.076-83.269zm108.007 13.689H101.964a6.844 6.844 0 0 1-5.928-10.267l59.931-103.804a6.844 6.844 0 0 1 11.856 0l59.931 103.804a6.844 6.844 0 0 1-5.928 10.267m973.206 1259.017c-19.368 0-35.125 15.756-35.125 35.12 0 19.368 15.756 35.125 35.125 35.125 19.364 0 35.12-15.756 35.12-35.125 0-19.364-15.756-35.12-35.12-35.12m0 83.934c-26.915 0-48.814-21.899-48.814-48.814s21.899-48.81 48.814-48.81 48.81 21.894 48.81 48.81c0 26.915-21.894 48.814-48.81 48.814"/>
  <path d="M130.505 1414.559h209.059V721.344L130.505 864.738zm406.863-622.704 7.965 4.053 5.633 2.87 23.715 12.081 1.8.917 15.682 7.988 23.715 12.075 1.8.917L649.76 849.1l9.584 4.88v560.577h87.087V317.938L537.367 544.779v247.074Zm252.056 255.663 96.224 25.793v232.287h-96.224zm0-281.789 96.224 51.58v179.869l-96.224-36.107zm0-279.983 96.224 61.894v172.968l-96.224-51.58zm128.363 591.295 96.224 25.793v198.546h-96.224zm0-256.483 96.224 51.58v179.869l-96.224-36.107zm0-271.553 96.224 61.9v172.968l-96.224-51.585zM764.305 1414.56h281.523V544.782L764.305 317.941zm-254.53-617.066-17.488-8.911v625.976h17.488zm-58.679-29.886v646.951h23.641v-634.91l-6.159-3.136z" style="fill:#CCDEFF20;fill-rule:nonzero"/>
  <path d="M550.966 1414.559V818.474l-13.598-6.924-3.884-1.981-6.159-3.136v608.126zM409.899 746.622v667.937h23.647V758.663l-6.165-3.136zm182.264 667.937V839.455l-17.482-8.899-6.165-3.142v587.146zm17.55-566.159v566.159h32.082V864.738l-25.917-13.196zM360.266 721.345v693.215h32.082V737.683l-6.165-3.142z" style="fill:#CCDEFF20;fill-rule:nonzero"/>
  <path d="M1074.134 1386.253H792.611V289.634l281.523 226.841zm-299.395 0h-87.087V825.676l-9.584-4.88-32.082-16.344-1.8-.917-23.715-12.075-15.682-7.988-1.8-.917-23.715-12.081-5.633-2.87-7.965-4.053V516.477L774.74 289.636v1096.619Zm-104.637 0H638.02V820.094l6.165 3.142 25.917 13.196zm-49.632 0h-23.647V799.107l6.165 3.142 17.482 8.899zm-41.197 0h-23.641V778.127l6.159 3.136 3.884 1.981 13.598 6.924zm-41.191 0h-17.488V760.277l17.488 8.911zm-35.038 0h-23.641V739.302l17.482 8.905 6.159 3.136zm-41.191 0h-23.647V718.316l17.482 8.905 6.165 3.136zm-41.197 0h-32.082V693.038l25.917 13.196 6.165 3.142zm-52.786 0H158.811V836.432L367.87 693.038zm717.275-883.444L803.622 275.968l-11.334-9.132-11.708-9.437-5.52 5.984-13.23 14.357-209.059 226.841-4.648 5.038V754.61l-10.043-5.118-15.682-7.988-1.806-.917-9.585-4.88-14.125-7.201v.006l-15.682-7.988-1.8-.917v-.006l-9.585-4.88-14.13-7.196-15.682-7.988-1.8-.917-9.584-4.88-14.131-7.195-17.952-9.149-11.119-5.661-10.054-5.123-4.342 2.978-13.077 8.973L148.88 821.957l-7.62 5.231v576.616h950.423V508.075z" style="fill:#48D1CC;fill-rule:nonzero"/>
  <path d="M896.404 1259.741h-61.125v-217.658l61.125 16.384v201.275Zm17.55-214.737-96.224-25.793v258.08h96.224zm-17.55-101.461-61.125-22.939V766.742l61.125 32.767zm17.55-154.541-96.224-51.58v195.342l96.224 36.107zm-17.55-126.019-61.125-32.767v-140.62l61.125 39.317zm17.55-143.649L817.73 457.44v183.283l96.224 51.58V519.335Zm110.813 736.189h-61.125v-183.917l61.125 16.384zm17.55-180.996-96.224-25.793v224.338h96.224v-198.546Zm-17.55-76.155-61.125-22.939V821.571l61.125 32.767zm17.55-154.541-96.224-51.58v195.342l96.224 36.107zm-17.55-117.584-61.125-32.767V552.854l61.125 39.323zm17.55-143.649-96.224-61.9v183.283l96.224 51.585z" style="fill:#48D1CC;fill-rule:nonzero"/>
</svg>
