<?xml version="1.0" encoding="UTF-8" standalone="no"?><!DOCTYPE svg PUBLIC "-//W3C//DTD SVG 1.1//EN" "http://www.w3.org/Graphics/SVG/1.1/DTD/svg11.dtd"><svg width="100%" height="100%" viewBox="0 0 1280 1280" version="1.1" xmlns="http://www.w3.org/2000/svg" xmlns:xlink="http://www.w3.org/1999/xlink" xml:space="preserve" xmlns:serif="http://www.serif.com/" style="fill-rule:evenodd;clip-rule:evenodd;stroke-linejoin:round;stroke-miterlimit:2;"><rect id="mission" x="0" y="0" width="1280" height="1280" style="fill:none;"/><g><path d="M393.212,704.176c-147.813,35.296 -198.863,91.938 -217.608,138.264c-12.592,31.112 -11.156,80.275 -17.078,123.295c-17.256,125.356 -50.654,165.009 -29.878,185.611c14.602,14.49 33.113,-27.459 158.99,-32.122c44.484,-1.643 128.561,-13.122 179.61,-60.928c51.047,-47.806 97.181,-90.642 123.537,-173.019c26.368,-82.387 -197.572,-181.1 -197.572,-181.1Z" style="fill:#4a5bbd;fill-rule:nonzero;"/><path d="M474.464,777.533c37.329,28.275 -1.648,146.631 -47.779,189.468c-46.131,42.836 -91.862,57.499 -124.265,65.744c-56.455,14.347 -96.032,44.347 -100.566,43.02c-11.495,-3.347 34.845,-43.938 50.191,-92.295c11.784,-37.122 -11.213,-98.203 41.69,-150.744c28.297,-28.102 126.36,-96.387 180.729,-55.193Z" style="fill:#48d1cc;fill-rule:nonzero;"/><path d="M982.904,671.085c-128.152,128.152 -268.885,216.6 -386.15,251.661c-18.877,5.643 -39.306,0.133 -52.737,-14.296l-178.67,-178.009c-12.841,-13.765 -17.136,-33.408 -11.347,-51.326c37.127,-115.05 130.647,-257.756 254.907,-382.021c114.101,-114.093 244.773,-190.093 356.721,-228.241c113.04,-38.522 206.968,-38.434 245.457,0.054c38.489,38.49 38.592,132.438 0.071,245.477c-38.153,111.94 -114.162,242.61 -228.253,356.701Z" style="fill:#6880f8;fill-rule:nonzero;"/><path d="M626.764,893.552c-3.031,3.031 -5.224,13.092 -4.245,17.265c8.02,34.143 20.081,85.55 13.265,130.458c-12.265,80.765 -55.418,137.172 -81.795,183.325c-5.275,9.245 5.286,19.408 14.326,13.786c68.204,-42.418 184.845,-114.346 261.875,-233.355c40.643,-62.785 70.704,-172.713 56.54,-252.375c-0.99,-5.582 -6.275,-9.367 -11.857,-8.377c-83.173,14.704 -184.08,85.152 -248.11,149.274Z" style="fill:#4a5bbd;fill-rule:nonzero;"/><path d="M386.448,653.238c-3.032,3.02 -13.093,5.224 -17.264,4.245c-34.139,-8.02 -85.548,-20.081 -130.46,-13.265c-80.76,12.265 -137.165,55.418 -183.325,81.795c-9.239,5.276 -19.408,-5.296 -13.788,-14.326c42.42,-68.203 114.354,-184.845 233.359,-261.875c62.784,-40.643 172.713,-70.705 252.379,-56.541c5.579,0.992 9.365,6.279 8.378,11.858c-14.712,83.173 -85.155,184.08 -149.28,248.11Z" style="fill:#4a5bbd;fill-rule:nonzero;"/><path d="M1004.598,504.413c-63.234,63.234 -165.774,63.234 -229.008,0c-63.244,-63.244 -63.244,-165.771 0,-229.01c63.234,-63.239 165.774,-63.239 229.008,0c63.244,63.239 63.244,165.766 0,229.01Z" style="fill:#f5f5f5;fill-rule:nonzero;"/><path d="M974.945,474.76c-46.867,46.857 -122.836,46.857 -169.703,0c-46.857,-46.865 -46.857,-122.841 0,-169.702c46.867,-46.861 122.836,-46.861 169.703,0c46.857,46.861 46.857,122.837 0,169.702Z" style="fill:#48d1cc;fill-rule:nonzero;"/><path d="M1211.157,314.384c-46.775,-20.277 -97.418,-55.065 -143.948,-101.593c-46.53,-46.529 -81.305,-97.166 -101.581,-143.938c113.04,-38.522 206.968,-38.434 245.457,0.054c38.489,38.49 38.592,132.438 0.071,245.477Z" style="fill:#4a5bbd;fill-rule:nonzero;"/></g></svg>