<?xml version="1.0" encoding="UTF-8" standalone="no"?><!DOCTYPE svg PUBLIC "-//W3C//DTD SVG 1.1//EN" "http://www.w3.org/Graphics/SVG/1.1/DTD/svg11.dtd"><svg width="100%" height="100%" viewBox="0 0 1280 1280" version="1.1" xmlns="http://www.w3.org/2000/svg" xmlns:xlink="http://www.w3.org/1999/xlink" xml:space="preserve" xmlns:serif="http://www.serif.com/" style="fill-rule:evenodd;clip-rule:evenodd;stroke-linejoin:round;stroke-miterlimit:2;"><rect id="vision" x="0" y="0" width="1280" height="1280" style="fill:none;"/><g id="vision1" serif:id="vision"><g><path d="M549.376,376.24c-7.627,23.824 -64.491,259.612 -64.491,259.612l-274.984,-84.614c0,0 96.89,-222.002 105.775,-249.763c20.642,-64.535 89.696,-100.114 154.225,-79.467c64.539,20.646 100.117,89.698 79.475,154.232Z" style="fill:#6880f8;fill-rule:nonzero;"/><path d="M491.013,896.495c-37.97,118.685 -164.963,184.117 -283.648,146.146c-118.685,-37.97 -184.117,-164.963 -146.146,-283.648l144.033,-295.184c40.612,-92.364 130.432,-145.57 224.258,-115.55c93.835,30.02 132.93,112.025 115.553,224.255l-54.05,323.981Z" style="fill:#4a5bbd;fill-rule:nonzero;"/><path d="M500.936,899.674c-39.719,124.169 -172.581,192.618 -296.75,152.899c-124.169,-39.728 -192.617,-172.59 -152.899,-296.75c39.728,-124.169 172.59,-192.627 296.75,-152.899c124.169,39.718 192.627,172.581 152.899,296.75Z" style="fill:#6880f8;fill-rule:nonzero;"/><path d="M460.055,886.591c-32.495,101.587 -141.2,157.596 -242.787,125.091c-101.587,-32.495 -157.596,-141.2 -125.101,-242.787c32.505,-101.587 141.209,-157.596 242.796,-125.091c101.587,32.495 157.596,141.2 125.091,242.786Z" style="fill:#48d1cc;fill-rule:nonzero;"/><path d="M730.63,376.24c7.627,23.824 64.491,259.612 64.491,259.612l274.984,-84.614c0,0 -96.89,-222.002 -105.775,-249.763c-20.642,-64.535 -89.696,-100.114 -154.234,-79.467c-64.529,20.646 -100.108,89.698 -79.466,154.232Z" style="fill:#6880f8;fill-rule:nonzero;"/><path d="M788.993,896.495c37.97,118.685 164.963,184.117 283.648,146.146c118.685,-37.97 184.117,-164.963 146.146,-283.648l-144.043,-295.184c-44.828,-97.3 -130.422,-145.57 -224.258,-115.55c-93.826,30.02 -135.744,119.075 -115.544,224.255l54.05,323.981Z" style="fill:#4a5bbd;fill-rule:nonzero;"/><path d="M779.07,899.674c39.719,124.169 172.581,192.618 296.75,152.899c124.16,-39.728 192.618,-172.59 152.889,-296.75c-39.719,-124.169 -172.581,-192.627 -296.75,-152.899c-124.16,39.718 -192.618,172.581 -152.89,296.75Z" style="fill:#6880f8;fill-rule:nonzero;"/><path d="M819.951,886.591c32.495,101.587 141.2,157.596 242.787,125.091c101.587,-32.495 157.596,-141.2 125.091,-242.787c-32.495,-101.587 -141.2,-157.596 -242.787,-125.091c-101.587,32.495 -157.596,141.2 -125.091,242.786Z" style="fill:#48d1cc;fill-rule:nonzero;"/><path d="M704.772,758.532c0,35.78 -28.999,64.779 -64.769,64.779c-35.771,0 -64.779,-28.999 -64.779,-64.779l12.602,-133.967c0,-28.816 23.36,-52.177 52.177,-52.177c28.816,0 52.176,23.36 52.176,52.177l12.593,133.967Z" style="fill:#4a5bbd;fill-rule:nonzero;"/><path d="M702.832,760.568c0,-34.695 -28.125,-62.829 -62.829,-62.829c-34.705,0 -62.829,28.134 -62.829,62.829c0,34.704 28.125,62.829 62.829,62.829c34.704,0 62.829,-28.125 62.829,-62.829Z" style="fill:#6880f8;fill-rule:nonzero;"/><path d="M602.974,709.813l-84.931,24.638l19.307,-115.707l75.883,-38.96l-10.259,130.029Z" style="fill:#4a5bbd;fill-rule:nonzero;"/><path d="M677.032,709.813l84.931,24.638l-18.337,-109.876l-72.329,-41.755l5.734,126.993Z" style="fill:#4a5bbd;fill-rule:nonzero;"/><path d="M1135.249,824.387c-7.396,0 -13.4,-5.994 -13.4,-13.39c0,-61.35 -49.91,-111.269 -111.26,-111.269c-7.396,0 -13.39,-5.994 -13.39,-13.39c0,-7.406 5.994,-13.4 13.39,-13.4c76.123,0 138.059,61.926 138.059,138.059c0,7.396 -6.003,13.39 -13.4,13.39Z" style="fill:#f5f5f5;fill-rule:nonzero;"/><path d="M400.77,824.387c-7.396,0 -13.4,-5.994 -13.4,-13.39c0,-61.35 -49.91,-111.269 -111.26,-111.269c-7.396,0 -13.39,-5.994 -13.39,-13.39c0,-7.406 5.994,-13.4 13.39,-13.4c76.123,0 138.059,61.926 138.059,138.059c0,7.396 -6.003,13.39 -13.4,13.39Z" style="fill:#f5f5f5;fill-rule:nonzero;"/></g></g></svg>